<svg id="svg" version="1.1" xmlns="http://www.w3.org/2000/svg" xmlns:xlink="http://www.w3.org/1999/xlink" width="400" height="400" viewBox="0, 0, 400,400"><g id="svgg"><path id="path0" d="M98.400 27.361 C 98.400 29.189,91.898 30.425,90.552 28.853 C 89.374 27.476,86.805 27.811,86.794 29.343 C 86.780 31.338,84.628 32.228,83.220 30.820 C 82.333 29.933,81.390 30.075,81.760 31.040 C 82.011 31.695,80.711 32.598,79.000 32.956 C 78.340 33.094,76.900 33.639,75.800 34.167 C 71.548 36.207,70.083 36.800,69.299 36.800 C 68.852 36.800,68.384 37.066,68.259 37.390 C 67.909 38.303,64.558 39.726,63.428 39.443 C 62.597 39.234,62.435 39.354,62.327 40.259 C 62.194 41.372,62.029 41.504,59.310 42.673 C 58.237 43.135,57.617 43.661,57.610 44.114 C 57.601 44.725,57.309 44.805,55.600 44.671 C 53.721 44.522,53.600 44.570,53.600 45.456 C 53.600 46.133,53.374 46.400,52.800 46.400 C 52.291 46.400,52.000 46.667,52.000 47.133 C 52.000 47.537,51.875 47.992,51.722 48.145 C 51.569 48.298,51.401 48.985,51.349 49.671 C 51.233 51.179,50.868 51.435,48.349 51.769 C 46.412 52.026,46.045 52.477,46.381 54.185 C 46.597 55.281,45.848 57.241,44.791 58.346 C 44.136 59.032,43.600 59.858,43.600 60.182 C 43.600 60.507,43.240 60.965,42.800 61.200 C 42.350 61.441,42.000 62.038,42.000 62.565 C 42.000 63.080,41.758 63.703,41.462 63.949 C 41.166 64.194,40.598 65.116,40.201 65.998 C 39.603 67.323,39.282 67.600,38.339 67.600 C 37.713 67.600,37.200 67.780,37.200 68.000 C 37.200 68.220,37.359 68.400,37.553 68.400 C 38.121 68.400,38.407 70.110,37.934 70.679 C 37.697 70.966,37.055 71.200,36.508 71.200 C 35.714 71.200,35.575 71.341,35.814 71.900 C 36.830 74.277,36.251 76.400,34.586 76.400 C 33.468 76.400,33.317 76.867,34.200 77.600 C 35.375 78.575,34.337 81.200,32.777 81.200 C 31.827 81.200,31.778 82.089,32.653 83.425 C 33.856 85.261,32.582 91.200,30.985 91.200 C 29.798 91.200,29.566 93.142,30.646 94.038 C 31.329 94.605,31.296 96.647,30.480 104.216 C 30.117 107.580,29.278 110.007,29.171 108.000 C 29.125 107.133,29.061 107.186,28.687 108.400 C 28.217 109.924,27.745 285.551,28.202 288.700 C 28.394 290.018,28.620 290.400,29.210 290.400 C 30.775 290.400,32.051 301.196,30.627 302.378 C 29.535 303.284,29.779 306.071,30.925 305.783 C 32.407 305.411,33.760 310.560,32.400 311.400 C 31.422 312.004,31.954 314.342,33.100 314.473 C 34.598 314.646,35.274 317.017,34.264 318.559 C 33.352 319.951,33.430 320.400,34.586 320.400 C 35.678 320.400,36.400 321.405,36.400 322.925 C 36.400 323.463,36.766 324.149,37.213 324.451 C 38.373 325.234,38.754 327.856,37.746 328.115 C 37.309 328.228,37.542 328.326,38.309 328.354 C 39.341 328.390,39.710 328.632,40.058 329.500 C 40.301 330.105,40.680 330.991,40.901 331.469 C 41.122 331.947,41.185 332.803,41.043 333.372 C 40.900 333.940,40.922 334.383,41.092 334.355 C 42.507 334.125,43.309 334.504,43.722 335.600 C 43.972 336.260,44.316 336.800,44.488 336.800 C 44.659 336.800,44.800 337.317,44.800 337.950 C 44.800 338.880,45.011 339.146,45.900 339.340 C 46.538 339.479,47.420 340.180,48.000 341.010 C 50.056 343.953,54.979 349.200,55.684 349.200 C 56.503 349.200,58.800 351.773,58.800 352.691 C 58.800 353.593,58.924 353.675,59.972 353.466 C 60.665 353.327,61.203 353.410,61.290 353.669 C 61.370 353.910,62.056 354.308,62.814 354.553 C 63.890 354.902,64.240 355.264,64.405 356.200 C 64.544 356.989,64.725 357.229,64.932 356.900 C 65.345 356.245,66.586 356.260,67.139 356.927 C 67.529 357.397,69.680 358.509,77.800 362.439 C 79.120 363.078,80.614 363.600,81.120 363.600 C 81.626 363.600,82.526 363.849,83.120 364.153 C 83.714 364.458,85.280 364.925,86.600 365.192 C 87.920 365.458,90.260 365.945,91.800 366.273 C 93.340 366.601,98.020 367.030,102.200 367.225 C 106.380 367.421,111.870 367.763,114.400 367.984 C 120.360 368.506,268.269 368.520,284.400 368.000 C 297.825 367.567,304.906 367.014,307.800 366.172 C 308.900 365.852,311.150 365.320,312.800 364.991 C 318.549 363.842,320.632 363.307,321.892 362.656 C 322.590 362.295,323.372 362.000,323.631 362.000 C 324.185 362.000,328.318 359.943,330.600 358.531 C 331.480 357.986,333.460 356.802,335.000 355.898 C 336.540 354.995,339.275 353.118,341.077 351.728 C 342.879 350.337,344.640 349.200,344.989 349.200 C 345.339 349.200,345.729 348.930,345.855 348.600 C 345.982 348.270,346.423 348.000,346.835 348.000 C 347.295 348.000,347.679 347.625,347.828 347.029 C 347.963 346.495,348.326 345.961,348.636 345.841 C 348.946 345.722,349.205 345.394,349.211 345.113 C 349.239 343.813,353.777 339.701,355.500 339.413 C 357.039 339.157,357.919 338.409,356.700 338.394 C 356.332 338.389,356.343 338.297,356.743 338.044 C 357.121 337.804,357.151 337.617,356.843 337.426 C 356.142 336.994,356.327 335.390,357.164 334.633 C 357.584 334.252,358.035 333.516,358.165 332.997 C 358.295 332.478,358.761 331.939,359.201 331.800 C 359.649 331.658,360.000 331.194,360.000 330.747 C 360.000 329.357,360.769 328.402,361.914 328.368 C 362.511 328.351,362.775 328.246,362.500 328.135 C 361.222 327.619,362.212 324.800,363.671 324.800 C 364.275 324.800,364.317 324.656,363.950 323.851 C 363.357 322.548,364.102 321.200,365.414 321.200 C 366.452 321.200,366.911 319.163,366.000 318.600 C 364.849 317.888,365.861 315.200,367.280 315.200 C 368.068 315.200,368.323 313.447,367.600 313.000 C 366.533 312.340,367.623 308.510,368.931 308.324 C 370.056 308.164,370.412 305.155,369.423 304.166 C 368.533 303.276,368.595 302.006,369.815 296.144 C 370.076 294.889,371.154 294.624,371.590 295.707 C 371.804 296.238,371.935 256.562,371.915 197.800 C 371.896 143.460,371.805 99.495,371.713 100.100 C 371.503 101.489,370.114 101.635,369.811 100.300 C 368.732 95.538,368.548 91.107,369.400 90.400 C 370.446 89.532,370.198 86.873,369.091 87.085 C 367.676 87.355,366.321 82.190,367.600 81.400 C 368.377 80.920,367.986 80.097,366.875 79.875 C 365.028 79.506,364.261 75.912,365.934 75.469 C 366.303 75.371,366.110 75.272,365.500 75.246 C 364.429 75.201,364.400 75.137,364.400 72.837 C 364.400 70.721,364.322 70.495,363.647 70.672 C 362.702 70.919,361.600 69.443,361.600 67.931 C 361.600 67.331,361.349 66.696,361.043 66.520 C 360.011 65.927,358.478 62.666,358.824 61.800 C 359.361 60.458,359.249 60.062,358.398 60.285 C 357.424 60.539,356.400 59.767,356.400 58.778 C 356.400 58.380,356.085 57.942,355.700 57.806 C 355.315 57.669,353.495 55.737,351.656 53.511 C 348.833 50.095,343.710 45.308,341.256 43.795 C 339.211 42.533,337.989 41.651,336.157 40.114 C 335.033 39.171,333.741 38.400,333.285 38.400 C 332.830 38.400,332.147 38.085,331.768 37.700 C 331.389 37.315,330.521 36.805,329.840 36.566 C 328.872 36.227,328.546 35.832,328.353 34.766 C 328.217 34.015,328.082 33.715,328.053 34.100 C 327.986 34.984,325.530 35.079,324.821 34.226 C 324.559 33.910,323.772 33.539,323.072 33.401 C 320.368 32.868,319.600 32.370,319.600 31.151 L 319.600 30.000 318.774 30.826 C 317.541 32.059,312.800 30.798,312.800 29.237 C 312.800 28.824,312.515 28.376,312.167 28.243 C 311.204 27.873,310.000 27.953,310.000 28.386 C 310.000 29.300,308.289 29.702,306.235 29.272 C 305.116 29.037,303.076 28.728,301.702 28.584 C 299.313 28.333,299.215 28.280,299.446 27.361 L 299.687 26.400 199.043 26.400 L 98.400 26.400 98.400 27.361 M284.000 61.593 C 295.709 61.977,301.875 62.783,306.773 64.569 C 309.391 65.524,316.521 69.429,317.380 70.378 C 317.789 70.830,318.343 71.200,318.611 71.200 C 318.879 71.200,319.867 72.055,320.806 73.100 C 321.745 74.145,323.100 75.450,323.818 76.000 C 325.543 77.323,328.489 81.047,329.196 82.800 C 329.506 83.570,330.326 85.014,331.018 86.008 C 331.710 87.002,332.406 88.532,332.565 89.408 C 332.723 90.284,333.203 91.990,333.630 93.200 C 334.388 95.344,334.557 96.408,335.789 106.800 C 336.445 112.330,336.650 275.579,336.013 285.400 C 335.634 291.240,334.631 297.873,333.840 299.767 C 333.518 300.537,332.978 302.246,332.640 303.566 C 331.248 308.998,324.684 319.875,322.349 320.616 C 321.959 320.740,321.257 321.461,320.789 322.218 C 319.971 323.541,308.869 329.600,307.263 329.600 C 306.968 329.600,306.269 329.960,305.709 330.400 C 305.150 330.840,304.221 331.202,303.646 331.205 C 303.071 331.207,301.610 331.495,300.400 331.843 C 296.680 332.914,292.038 333.225,274.600 333.572 C 249.753 334.067,118.940 334.088,115.677 333.598 C 114.204 333.377,110.120 332.946,106.600 332.641 C 102.687 332.301,99.190 331.765,97.600 331.261 C 96.170 330.808,93.675 330.037,92.056 329.549 C 90.437 329.060,88.547 328.249,87.856 327.746 C 87.165 327.243,85.790 326.391,84.800 325.854 C 82.226 324.458,77.197 319.921,74.543 316.600 C 72.998 314.668,69.600 309.047,69.600 308.425 C 69.600 308.257,69.063 307.328,68.407 306.360 C 67.719 305.344,67.211 304.068,67.207 303.342 C 67.203 302.650,66.859 300.940,66.442 299.542 C 66.025 298.144,65.571 295.663,65.433 294.030 C 65.294 292.396,64.961 290.793,64.691 290.468 C 63.863 289.471,63.733 115.274,64.554 107.800 C 64.892 104.720,65.283 100.965,65.421 99.457 C 65.560 97.948,66.017 95.714,66.436 94.494 C 66.856 93.273,67.200 91.912,67.200 91.469 C 67.200 90.344,69.516 85.284,70.801 83.600 C 71.389 82.830,72.108 81.750,72.399 81.200 C 72.689 80.650,73.258 79.965,73.663 79.677 C 74.069 79.390,74.400 78.914,74.400 78.619 C 74.400 78.086,81.079 71.682,82.922 70.449 C 83.456 70.092,84.861 69.131,86.046 68.313 C 88.984 66.285,96.322 63.600,98.925 63.600 C 100.280 63.600,101.189 63.371,101.710 62.900 C 102.332 62.337,103.781 62.115,109.141 61.764 C 117.604 61.209,267.804 61.063,284.000 61.593 M97.700 81.476 C 98.085 81.576,98.715 81.576,99.100 81.476 C 99.485 81.375,99.170 81.293,98.400 81.293 C 97.630 81.293,97.315 81.375,97.700 81.476 M131.100 81.500 C 146.995 81.558,173.005 81.558,188.900 81.500 C 204.795 81.442,191.790 81.395,160.000 81.395 C 128.210 81.395,115.205 81.442,131.100 81.500 M283.100 81.499 C 287.115 81.565,293.685 81.565,297.700 81.499 C 301.715 81.434,298.430 81.381,290.400 81.381 C 282.370 81.381,279.085 81.434,283.100 81.499 M313.764 86.831 C 314.334 87.508,314.800 88.258,314.800 88.497 C 314.800 88.737,314.905 88.829,315.032 88.701 C 315.458 88.276,313.698 85.600,312.993 85.600 C 312.848 85.600,313.195 86.154,313.764 86.831 M316.534 95.600 C 316.534 97.250,316.605 97.925,316.691 97.100 C 316.778 96.275,316.778 94.925,316.691 94.100 C 316.605 93.275,316.534 93.950,316.534 95.600 M83.397 194.400 C 83.397 249.070,83.443 271.435,83.500 244.100 C 83.557 216.765,83.557 172.035,83.500 144.700 C 83.443 117.365,83.397 139.730,83.397 194.400 M316.509 101.200 C 316.509 102.190,316.587 102.595,316.682 102.100 C 316.778 101.605,316.778 100.795,316.682 100.300 C 316.587 99.805,316.509 100.210,316.509 101.200 M192.180 213.561 C 191.971 213.760,191.440 214.009,191.000 214.115 C 190.241 214.297,190.244 214.310,191.051 214.354 C 191.519 214.379,192.126 214.130,192.400 213.800 C 192.943 213.146,192.791 212.981,192.180 213.561 M316.920 296.400 C 316.920 297.610,316.995 298.105,317.087 297.500 C 317.178 296.895,317.178 295.905,317.087 295.300 C 316.995 294.695,316.920 295.190,316.920 296.400 M83.301 299.400 C 83.305 300.280,83.387 300.593,83.483 300.095 C 83.579 299.598,83.575 298.878,83.475 298.495 C 83.375 298.113,83.296 298.520,83.301 299.400 M316.501 301.000 C 316.505 301.880,316.587 302.193,316.683 301.695 C 316.779 301.198,316.775 300.478,316.675 300.095 C 316.575 299.713,316.496 300.120,316.501 301.000 M83.641 303.737 C 83.618 304.362,83.960 305.331,84.400 305.891 C 84.840 306.450,85.200 306.740,85.200 306.534 C 85.200 306.328,85.001 305.961,84.757 305.717 C 84.513 305.473,84.172 304.672,83.998 303.937 C 83.690 302.634,83.681 302.629,83.641 303.737 M315.186 306.279 C 313.308 310.262,311.694 311.689,307.031 313.489 C 305.694 314.005,305.140 314.322,305.800 314.192 C 307.818 313.796,311.812 311.766,312.966 310.551 C 313.998 309.462,316.517 304.784,316.227 304.494 C 316.153 304.419,315.684 305.223,315.186 306.279 M86.575 309.732 C 87.191 310.539,87.776 311.200,87.875 311.200 C 88.153 311.200,86.421 308.860,85.909 308.544 C 85.659 308.389,85.959 308.924,86.575 309.732 M94.000 313.982 C 94.330 314.205,94.945 314.391,95.367 314.394 C 96.390 314.402,96.071 314.173,94.600 313.844 C 93.724 313.648,93.562 313.685,94.000 313.982 M105.721 314.698 C 107.877 314.771,111.297 314.770,113.321 314.698 C 115.344 314.625,113.580 314.566,109.400 314.567 C 105.220 314.567,103.564 314.626,105.721 314.698 M126.112 314.695 C 127.164 314.777,128.784 314.776,129.712 314.692 C 130.640 314.608,129.780 314.541,127.800 314.542 C 125.820 314.543,125.060 314.612,126.112 314.695 M266.922 314.699 C 269.299 314.770,273.079 314.769,275.322 314.698 C 277.565 314.627,275.620 314.569,271.000 314.569 C 266.380 314.570,264.545 314.628,266.922 314.699 " stroke="none" fill="#2173de" fill-rule="evenodd"></path><path id="path1" d="M117.200 63.567 C 117.200 63.988,117.425 64.422,117.700 64.530 C 117.975 64.638,117.550 64.634,116.755 64.520 C 115.960 64.406,114.912 64.526,114.425 64.787 C 113.939 65.047,110.629 65.440,107.070 65.659 C 103.512 65.879,99.087 66.155,97.238 66.273 C 94.953 66.418,93.480 66.729,92.638 67.242 C 91.957 67.657,91.121 67.998,90.780 67.999 C 88.773 68.003,86.629 70.230,87.555 71.346 C 87.943 71.813,87.806 72.019,86.811 72.459 C 86.140 72.756,85.494 73.303,85.377 73.673 C 85.227 74.146,84.514 74.428,82.993 74.618 C 80.439 74.937,79.970 75.390,79.699 77.800 C 79.484 79.704,79.251 79.889,78.027 79.124 C 77.516 78.805,76.991 78.772,76.432 79.024 L 75.598 79.400 76.477 81.174 C 76.961 82.150,77.186 83.007,76.978 83.080 C 75.441 83.618,74.584 84.348,74.480 85.210 C 74.243 87.173,74.045 87.296,73.010 86.126 C 71.916 84.888,71.219 85.265,71.206 87.100 C 71.203 87.595,71.007 88.000,70.770 88.000 C 70.515 88.000,70.367 88.772,70.406 89.900 C 70.531 93.544,70.445 94.104,69.800 93.843 C 69.470 93.709,68.930 93.491,68.600 93.357 C 67.569 92.940,67.884 95.444,69.213 98.227 L 70.426 100.769 70.003 106.884 C 69.770 110.248,69.482 113.545,69.362 114.211 C 69.207 115.072,69.384 115.725,69.972 116.474 C 70.731 117.439,70.800 118.060,70.800 123.963 C 70.800 128.514,70.934 130.400,71.256 130.400 C 72.483 130.400,72.775 131.816,72.787 137.846 C 72.799 143.500,72.858 143.966,73.700 145.036 L 74.600 146.180 74.714 167.101 C 74.815 185.796,74.758 188.169,74.173 189.401 C 73.731 190.333,73.590 191.336,73.741 192.490 C 74.504 198.350,75.107 201.204,75.900 202.712 C 76.781 204.388,76.800 204.709,76.802 217.712 C 76.805 228.718,76.908 231.197,77.402 232.146 C 77.893 233.086,78.009 235.596,78.053 246.146 C 78.095 256.494,78.587 285.600,78.845 293.000 C 78.876 293.880,78.706 295.410,78.468 296.400 C 77.809 299.138,77.879 303.401,78.592 303.993 C 79.022 304.350,79.076 304.684,78.790 305.218 C 78.196 306.329,80.800 311.200,81.989 311.200 C 82.902 311.200,87.156 315.354,87.627 316.705 C 88.056 317.937,94.320 318.700,94.998 317.603 C 95.378 316.988,99.304 317.081,99.107 317.700 C 99.020 317.975,98.555 318.378,98.074 318.595 C 97.183 318.997,96.889 319.600,97.584 319.600 C 97.796 319.600,98.291 319.938,98.684 320.350 C 99.975 321.704,101.198 321.811,102.151 320.654 C 103.059 319.551,106.400 319.495,106.400 320.583 C 106.400 322.773,112.699 323.713,115.896 322.000 C 116.716 321.560,117.817 321.200,118.341 321.200 C 119.141 321.200,119.263 321.040,119.102 320.200 C 118.927 319.285,119.033 319.199,120.355 319.185 C 121.150 319.177,123.825 319.083,126.300 318.976 L 130.800 318.782 130.800 319.791 L 130.800 320.800 195.618 320.800 L 260.436 320.800 261.396 319.841 L 262.355 318.881 281.478 318.777 C 300.526 318.674,300.607 318.677,302.524 319.566 C 304.027 320.263,304.571 320.356,305.013 319.989 C 305.446 319.630,306.047 319.641,307.589 320.036 C 309.465 320.517,309.678 320.493,310.783 319.676 C 311.435 319.194,312.200 318.794,312.484 318.787 C 313.361 318.766,314.259 317.852,314.536 316.700 C 314.681 316.095,314.917 315.105,315.059 314.500 C 315.384 313.126,316.548 311.599,317.712 311.021 C 318.200 310.778,318.663 310.140,318.739 309.603 C 318.816 309.066,319.221 308.191,319.639 307.659 C 320.058 307.127,320.400 306.444,320.400 306.141 C 320.400 305.837,320.562 305.277,320.760 304.895 C 320.958 304.513,321.325 302.609,321.576 300.665 C 321.827 298.721,322.470 295.971,323.003 294.553 L 323.974 291.974 323.176 290.444 C 322.416 288.985,322.386 288.307,322.551 276.156 C 322.972 245.051,323.616 219.343,323.996 218.481 C 324.218 217.976,324.400 214.770,324.400 211.356 C 324.400 205.268,325.059 201.200,326.046 201.200 C 327.026 201.200,326.432 190.169,325.400 189.200 C 322.929 186.878,324.270 175.442,327.125 174.493 L 328.200 174.135 328.721 159.367 C 329.008 151.245,329.408 141.540,329.609 137.800 C 330.820 115.317,330.788 104.671,329.501 102.191 C 328.833 100.904,329.019 98.620,329.930 96.926 C 330.768 95.368,330.507 91.980,329.410 90.200 C 328.868 89.320,328.419 88.009,328.412 87.287 C 328.405 86.518,328.160 85.883,327.819 85.752 C 327.500 85.630,327.029 84.894,326.773 84.118 C 326.517 83.342,326.013 82.386,325.654 81.994 C 325.294 81.602,324.537 80.754,323.972 80.111 C 323.406 79.467,322.641 78.825,322.272 78.683 C 321.902 78.541,321.600 78.167,321.600 77.852 C 321.600 77.537,320.966 76.905,320.190 76.447 C 319.001 75.746,318.820 75.458,319.034 74.608 C 319.190 73.985,319.117 73.600,318.843 73.600 C 318.600 73.600,318.400 73.804,318.400 74.052 C 318.400 74.683,315.686 74.202,314.819 73.417 C 314.411 73.048,313.393 72.800,312.287 72.800 C 308.364 72.800,306.293 69.694,309.335 68.373 C 309.922 68.118,309.284 68.074,307.349 68.234 L 304.497 68.471 304.684 67.495 C 304.896 66.387,304.551 66.293,295.600 65.000 C 293.070 64.635,290.036 64.065,288.857 63.734 C 286.193 62.986,274.000 62.523,274.000 63.171 C 274.000 63.407,274.251 63.600,274.557 63.600 C 275.541 63.600,275.541 64.611,274.556 65.488 C 274.030 65.956,273.600 66.167,273.600 65.957 C 273.600 64.813,270.410 64.803,270.387 65.947 C 270.376 66.508,270.294 66.494,269.807 65.850 C 269.144 64.976,267.268 64.853,266.755 65.650 C 266.481 66.074,266.328 66.088,266.083 65.711 C 265.909 65.442,265.054 65.055,264.183 64.851 C 263.007 64.576,262.857 64.467,263.600 64.427 C 264.150 64.398,264.951 64.109,265.379 63.785 C 266.132 63.216,267.566 63.347,268.006 64.026 C 268.120 64.201,268.660 64.001,269.206 63.581 C 270.185 62.829,269.058 62.818,193.700 62.809 C 118.572 62.800,117.200 62.814,117.200 63.567 M270.400 63.200 C 270.400 63.420,270.670 63.600,271.000 63.600 C 271.330 63.600,271.600 63.763,271.600 63.962 C 271.600 64.162,272.049 64.117,272.597 63.862 C 274.046 63.190,273.826 62.800,272.000 62.800 C 271.120 62.800,270.400 62.980,270.400 63.200 M292.800 66.016 C 292.800 66.469,291.300 66.909,290.804 66.602 C 290.180 66.217,290.326 65.675,291.100 65.503 C 291.954 65.313,292.800 65.569,292.800 66.016 M289.587 66.547 C 289.539 68.284,285.211 69.259,284.004 67.805 C 283.095 66.709,283.832 65.903,285.501 66.169 C 286.325 66.301,287.245 66.249,287.544 66.053 C 288.227 65.608,289.604 65.941,289.587 66.547 M281.500 67.033 C 281.119 67.415,280.355 66.797,280.639 66.338 C 280.807 66.064,281.031 66.071,281.318 66.358 C 281.554 66.594,281.636 66.898,281.500 67.033 M101.108 67.925 C 101.205 68.214,100.842 68.400,100.184 68.400 C 99.257 68.400,99.175 68.312,99.611 67.787 C 100.168 67.116,100.860 67.179,101.108 67.925 M306.600 81.642 C 311.270 82.733,314.017 84.974,315.864 89.200 L 317.000 91.800 317.000 198.218 C 317.000 295.045,316.942 304.724,316.361 305.618 C 316.009 306.158,315.511 307.241,315.254 308.025 C 314.600 310.022,312.253 312.131,309.200 313.464 L 306.600 314.600 200.681 314.703 L 94.762 314.806 92.569 313.803 C 91.363 313.251,90.301 312.800,90.208 312.800 C 89.082 312.800,85.420 309.424,85.000 308.000 C 84.838 307.450,84.448 306.706,84.133 306.347 C 83.808 305.976,83.401 304.159,83.192 302.147 C 82.816 298.523,83.027 98.414,83.412 93.740 C 84.035 86.170,89.151 81.738,98.000 81.101 C 103.393 80.713,304.859 81.236,306.600 81.642 M279.923 122.325 C 276.563 124.547,249.727 151.317,228.336 173.785 C 225.621 176.636,222.680 179.710,221.800 180.616 C 220.920 181.521,218.220 184.399,215.800 187.011 C 213.380 189.622,210.214 193.028,208.764 194.579 C 207.314 196.131,205.107 198.621,203.858 200.113 C 202.609 201.604,200.826 203.600,199.894 204.547 C 197.981 206.491,195.201 209.614,194.600 210.495 C 194.380 210.817,193.703 211.827,193.095 212.740 C 191.511 215.119,190.807 214.940,186.800 211.138 C 184.930 209.364,182.140 206.827,180.600 205.499 C 179.060 204.172,177.515 202.797,177.167 202.443 C 175.851 201.105,168.674 194.566,167.681 193.800 C 167.111 193.360,166.274 192.636,165.822 192.192 C 165.370 191.747,163.830 190.397,162.400 189.192 C 160.970 187.986,159.620 186.805,159.400 186.566 C 158.485 185.573,155.340 183.279,154.573 183.045 C 153.913 182.843,153.115 183.441,150.617 186.008 C 148.897 187.776,147.275 189.352,147.013 189.511 C 146.751 189.670,145.082 191.460,143.303 193.488 C 139.465 197.864,139.466 197.805,143.157 201.578 C 144.610 203.065,146.160 204.739,146.600 205.300 C 147.473 206.413,155.791 215.220,161.200 220.758 C 167.520 227.230,169.600 229.488,169.600 229.881 C 169.600 230.096,170.031 230.468,170.559 230.708 C 171.086 230.949,172.031 231.833,172.659 232.673 C 173.286 233.513,173.935 234.260,174.100 234.333 C 174.431 234.480,177.854 238.027,179.183 239.600 C 179.648 240.150,182.064 242.760,184.551 245.400 C 187.038 248.040,190.312 251.522,191.827 253.138 C 197.657 259.358,200.397 260.022,201.813 255.558 C 201.971 255.060,202.888 253.526,203.850 252.149 C 204.813 250.772,205.600 249.538,205.600 249.407 C 205.600 249.275,205.939 248.680,206.353 248.084 C 207.971 245.755,214.839 235.344,216.200 233.157 C 217.225 231.510,218.944 228.980,219.160 228.800 C 219.292 228.690,219.580 228.302,219.800 227.937 C 220.020 227.573,220.965 226.157,221.900 224.792 C 222.835 223.426,223.600 222.189,223.600 222.043 C 223.600 221.897,223.915 221.494,224.300 221.148 C 224.685 220.801,225.360 219.912,225.800 219.173 C 226.240 218.433,226.870 217.443,227.200 216.972 C 227.530 216.501,228.558 214.965,229.485 213.558 C 230.412 212.151,231.312 210.820,231.485 210.600 C 231.658 210.380,232.430 209.341,233.200 208.292 C 233.970 207.243,235.005 205.893,235.500 205.292 C 235.994 204.692,236.399 203.997,236.400 203.749 C 236.400 203.501,236.664 203.079,236.986 202.812 C 237.308 202.544,238.212 201.397,238.995 200.263 C 239.778 199.128,241.045 197.390,241.810 196.400 C 242.574 195.410,243.321 194.330,243.468 194.000 C 243.616 193.670,244.111 192.930,244.568 192.356 C 245.446 191.253,245.984 190.484,247.110 188.719 C 247.490 188.125,248.925 186.189,250.300 184.417 C 251.675 182.646,252.800 181.018,252.800 180.801 C 252.800 180.584,253.160 180.182,253.600 179.907 C 254.040 179.632,254.400 179.223,254.400 178.996 C 254.400 178.770,255.075 177.757,255.900 176.744 C 256.725 175.731,258.750 173.164,260.400 171.040 C 266.120 163.676,268.919 160.190,270.655 158.269 C 271.615 157.207,272.400 156.179,272.400 155.985 C 272.400 155.790,272.735 155.309,273.145 154.916 C 273.555 154.522,276.210 151.433,279.045 148.052 C 281.880 144.670,285.415 140.468,286.900 138.712 C 288.385 136.957,289.600 135.170,289.600 134.741 C 289.600 133.946,288.523 131.563,288.000 131.200 C 287.841 131.090,287.397 130.387,287.013 129.638 C 286.629 128.888,286.150 128.078,285.949 127.838 C 285.748 127.597,284.836 126.265,283.923 124.877 C 281.903 121.809,281.293 121.419,279.923 122.325 M69.867 131.067 C 69.423 131.511,69.552 144.800,70.000 144.800 C 70.251 144.800,70.400 142.200,70.400 137.800 C 70.400 133.950,70.340 130.800,70.267 130.800 C 70.193 130.800,70.013 130.920,69.867 131.067 M316.200 315.200 C 316.064 315.420,316.039 315.600,316.144 315.600 C 316.249 315.600,316.619 315.709,316.967 315.843 C 317.382 316.002,317.600 315.865,317.600 315.443 C 317.600 314.737,316.594 314.563,316.200 315.200 " stroke="none" fill="#152a5b" fill-rule="evenodd"></path><path id="path2" d="M90.000 27.400 C 90.000 28.244,90.187 28.400,91.200 28.400 C 92.213 28.400,92.400 28.244,92.400 27.400 C 92.400 26.556,92.213 26.400,91.200 26.400 C 90.187 26.400,90.000 26.556,90.000 27.400 M316.800 28.995 C 316.800 30.149,317.026 30.322,318.231 30.092 C 319.694 29.812,319.425 28.260,317.900 28.181 C 317.019 28.135,316.800 28.297,316.800 28.995 M75.600 31.000 C 75.600 31.800,75.800 32.000,76.600 32.000 C 77.400 32.000,77.600 31.800,77.600 31.000 C 77.600 30.200,77.400 30.000,76.600 30.000 C 75.800 30.000,75.600 30.200,75.600 31.000 M322.702 31.000 C 322.825 31.645,323.161 32.000,323.647 32.000 C 324.184 32.000,324.400 31.713,324.400 31.000 C 324.400 30.216,324.196 30.000,323.455 30.000 C 322.664 30.000,322.542 30.162,322.702 31.000 M344.400 43.800 C 344.400 44.600,344.600 44.800,345.400 44.800 C 346.200 44.800,346.400 44.600,346.400 43.800 C 346.400 43.000,346.200 42.800,345.400 42.800 C 344.600 42.800,344.400 43.000,344.400 43.800 M48.360 48.180 C 48.339 48.191,48.276 48.704,48.221 49.321 C 48.080 50.906,50.134 50.768,50.319 49.180 C 50.420 48.313,49.266 47.724,48.360 48.180 M352.000 50.444 C 352.000 50.640,352.281 50.800,352.624 50.800 C 352.967 50.800,353.144 50.968,353.017 51.172 C 352.891 51.377,352.970 51.658,353.193 51.796 C 353.417 51.934,353.600 52.397,353.600 52.824 C 353.600 53.646,354.238 53.817,355.151 53.239 C 355.851 52.796,355.354 51.943,354.483 52.089 C 354.060 52.161,353.750 51.844,353.613 51.200 C 353.417 50.278,352.000 49.614,352.000 50.444 M40.891 58.300 C 40.835 59.036,40.921 59.223,41.149 58.866 C 41.336 58.572,41.604 58.347,41.745 58.366 C 42.547 58.473,42.800 58.337,42.800 57.800 C 42.800 56.612,40.983 57.088,40.891 58.300 M37.200 63.931 C 37.200 64.946,37.316 65.044,38.338 64.894 C 39.293 64.754,39.446 64.574,39.291 63.764 C 39.003 62.260,37.200 62.404,37.200 63.931 M368.000 82.050 C 368.000 83.010,368.165 83.200,369.000 83.200 C 369.835 83.200,370.000 83.010,370.000 82.050 C 370.000 81.090,369.835 80.900,369.000 80.900 C 368.165 80.900,368.000 81.090,368.000 82.050 M156.100 82.701 C 120.900 82.758,93.600 82.955,93.600 83.151 C 93.600 83.343,93.055 83.609,92.388 83.742 C 91.721 83.876,90.756 84.438,90.242 84.992 C 89.728 85.547,89.033 86.000,88.697 86.000 C 88.362 86.000,87.974 86.450,87.836 87.000 C 87.698 87.550,87.339 88.000,87.038 88.000 C 86.694 88.000,86.388 88.686,86.214 89.846 C 86.012 91.190,85.729 91.746,85.169 91.892 C 84.339 92.109,83.914 300.853,84.743 301.365 C 84.931 301.481,85.316 302.663,85.598 303.990 C 85.886 305.346,86.524 306.885,87.055 307.502 C 87.574 308.106,87.999 308.803,88.000 309.051 C 88.000 309.300,88.547 309.730,89.216 310.007 C 89.885 310.284,90.685 310.871,90.994 311.313 C 91.969 312.705,95.334 312.749,199.000 312.755 C 300.237 312.761,306.979 312.684,308.295 311.498 C 308.683 311.148,309.505 310.736,310.123 310.582 C 310.741 310.428,311.539 309.829,311.898 309.251 C 312.257 308.673,312.820 307.879,313.149 307.487 C 313.478 307.094,314.160 305.564,314.664 304.087 L 315.579 301.400 315.590 196.747 C 315.600 92.425,315.597 92.093,314.800 91.884 C 314.169 91.719,314.000 91.338,314.000 90.083 C 314.000 88.827,313.789 88.354,313.000 87.837 C 312.450 87.476,312.000 87.014,312.000 86.809 C 312.000 86.022,310.001 84.489,308.643 84.235 C 307.861 84.088,307.063 83.685,306.870 83.339 C 306.472 82.629,277.273 82.505,156.100 82.701 M30.000 83.800 C 30.000 84.600,30.200 84.800,31.000 84.800 C 31.800 84.800,32.000 84.600,32.000 83.800 C 32.000 83.000,31.800 82.800,31.000 82.800 C 30.200 82.800,30.000 83.000,30.000 83.800 M308.583 86.372 C 309.013 87.069,307.926 87.298,307.276 86.647 C 306.679 86.051,306.696 86.000,307.491 86.000 C 307.965 86.000,308.456 86.168,308.583 86.372 M310.400 88.800 C 310.400 89.240,310.220 89.600,310.000 89.600 C 309.780 89.600,309.600 89.240,309.600 88.800 C 309.600 88.360,309.780 88.000,310.000 88.000 C 310.220 88.000,310.400 88.360,310.400 88.800 M370.000 91.172 C 370.000 92.224,370.147 92.400,371.027 92.400 C 372.430 92.400,372.315 90.273,370.900 90.072 C 370.134 89.963,370.000 90.128,370.000 91.172 M86.930 93.361 C 87.155 93.949,86.897 94.400,86.333 94.400 C 86.150 94.400,86.000 94.040,86.000 93.600 C 86.000 92.683,86.609 92.526,86.930 93.361 M28.500 93.865 C 27.929 94.095,27.863 94.765,28.338 95.514 C 28.838 96.302,30.000 95.634,30.000 94.557 C 30.000 93.637,29.564 93.435,28.500 93.865 M307.200 94.600 C 307.200 95.222,306.973 95.600,306.600 95.600 C 306.227 95.600,306.000 95.222,306.000 94.600 C 306.000 93.978,306.227 93.600,306.600 93.600 C 306.973 93.600,307.200 93.978,307.200 94.600 M282.822 121.335 C 284.773 123.224,286.000 124.784,286.000 125.376 C 286.000 125.655,286.450 126.369,287.000 126.962 C 287.550 127.556,288.000 128.349,288.000 128.724 C 288.000 129.100,288.360 129.632,288.800 129.907 C 289.240 130.182,289.600 130.764,289.600 131.200 C 289.600 131.636,289.960 132.218,290.400 132.493 C 290.967 132.847,291.200 133.426,291.200 134.482 C 291.200 135.562,290.980 136.090,290.400 136.400 C 289.960 136.635,289.600 137.090,289.600 137.411 C 289.600 137.731,289.240 138.218,288.800 138.493 C 288.360 138.768,288.000 139.198,288.000 139.450 C 288.000 139.702,287.550 140.203,287.000 140.563 C 286.450 140.924,286.000 141.422,286.000 141.671 C 286.000 141.919,285.084 143.130,283.964 144.361 C 279.479 149.293,278.800 150.080,278.800 150.344 C 278.800 150.496,278.035 151.353,277.100 152.250 C 275.403 153.877,274.987 154.400,273.689 156.530 C 273.099 157.498,272.139 158.608,268.588 162.434 C 268.265 162.782,267.995 163.232,267.989 163.434 C 267.983 163.635,267.083 164.769,265.989 165.953 C 264.895 167.138,264.000 168.347,264.000 168.639 C 264.000 168.932,263.640 169.365,263.200 169.600 C 262.760 169.835,262.400 170.221,262.400 170.456 C 262.400 171.061,259.851 174.300,256.900 177.445 C 255.965 178.442,255.200 179.513,255.200 179.825 C 255.200 180.138,254.840 180.618,254.400 180.893 C 253.960 181.168,253.600 181.613,253.600 181.882 C 253.600 182.152,253.060 182.987,252.400 183.739 C 251.740 184.491,251.200 185.267,251.200 185.464 C 251.200 185.661,250.885 186.115,250.500 186.472 C 250.115 186.830,249.350 187.777,248.800 188.578 C 247.470 190.513,245.741 192.858,245.098 193.600 C 244.811 193.930,244.327 194.695,244.021 195.300 C 243.715 195.905,243.337 196.400,243.181 196.400 C 243.025 196.400,242.673 196.940,242.400 197.600 C 242.127 198.260,241.674 198.800,241.395 198.800 C 241.115 198.800,240.778 199.234,240.645 199.765 C 240.418 200.668,239.933 201.347,237.700 203.891 C 237.205 204.455,236.800 205.136,236.800 205.403 C 236.800 205.671,236.305 206.524,235.700 207.300 C 235.095 208.075,234.330 209.110,234.000 209.600 C 233.340 210.580,231.699 212.810,230.421 214.463 C 229.970 215.048,229.600 215.722,229.600 215.960 C 229.600 216.198,229.240 216.618,228.800 216.893 C 228.360 217.168,228.000 217.640,228.000 217.943 C 228.000 218.629,225.264 222.400,224.766 222.400 C 224.565 222.400,224.400 222.746,224.400 223.169 C 224.400 223.592,223.950 224.473,223.400 225.127 C 222.850 225.781,222.400 226.504,222.400 226.735 C 222.400 226.966,222.060 227.393,221.644 227.684 C 221.229 227.975,220.608 228.885,220.265 229.707 C 219.922 230.528,219.452 231.200,219.220 231.200 C 218.989 231.200,218.800 231.460,218.800 231.777 C 218.800 232.095,218.476 232.590,218.080 232.877 C 217.684 233.165,217.127 233.972,216.843 234.671 C 216.559 235.370,215.983 236.253,215.563 236.633 C 215.144 237.013,214.800 237.572,214.800 237.875 C 214.800 238.177,214.530 238.529,214.200 238.655 C 213.870 238.782,213.600 239.112,213.600 239.388 C 213.600 239.664,213.060 240.569,212.400 241.400 C 211.740 242.231,211.200 243.115,211.200 243.366 C 211.200 243.617,210.840 244.130,210.400 244.507 C 209.960 244.884,209.600 245.436,209.600 245.734 C 209.600 246.032,209.240 246.602,208.800 247.000 C 208.360 247.398,208.000 247.930,208.000 248.182 C 208.000 248.434,207.225 249.711,206.278 251.020 C 205.331 252.329,203.947 254.480,203.202 255.800 C 202.457 257.120,201.681 258.267,201.479 258.348 C 201.277 258.430,200.739 258.925,200.283 259.448 C 198.715 261.252,197.085 260.472,192.547 255.741 C 185.702 248.605,182.816 245.536,181.200 243.673 C 180.210 242.532,177.375 239.519,174.900 236.977 C 172.425 234.436,170.400 232.199,170.400 232.005 C 170.400 231.812,170.040 231.540,169.600 231.400 C 169.160 231.260,168.800 230.983,168.800 230.783 C 168.800 230.504,165.129 226.489,162.504 223.900 C 162.337 223.734,160.850 222.271,159.200 220.647 C 156.550 218.039,154.691 216.073,147.051 207.800 C 146.036 206.700,145.203 205.651,145.202 205.470 C 145.201 205.288,143.920 203.912,142.356 202.411 C 138.292 198.513,138.122 197.033,141.356 193.715 C 146.595 188.340,147.200 187.690,147.200 187.438 C 147.200 187.292,147.785 186.625,148.500 185.955 C 149.215 185.285,150.643 183.934,151.674 182.954 C 153.917 180.822,154.846 180.869,157.290 183.241 C 158.154 184.079,159.207 184.875,159.630 185.010 C 160.054 185.144,160.400 185.398,160.400 185.573 C 160.400 185.749,161.179 186.502,162.132 187.246 C 164.261 188.911,167.862 192.032,170.269 194.300 C 171.261 195.235,172.206 196.000,172.369 196.000 C 172.532 196.000,172.906 196.450,173.200 197.000 C 173.494 197.550,173.956 198.000,174.225 198.000 C 174.494 198.000,174.813 198.256,174.933 198.570 C 175.053 198.883,175.793 199.444,176.576 199.815 C 177.359 200.187,178.000 200.622,178.000 200.782 C 178.000 201.196,181.452 204.798,181.860 204.809 C 182.145 204.817,183.737 206.250,189.634 211.803 C 190.537 212.655,191.897 212.540,192.416 211.570 C 192.661 211.113,193.162 210.406,193.530 209.998 C 194.901 208.482,195.405 207.835,195.600 207.345 C 195.841 206.738,199.014 203.208,203.500 198.557 C 205.315 196.675,206.800 194.982,206.800 194.794 C 206.800 194.607,207.151 194.343,207.580 194.206 C 208.008 194.070,208.470 193.608,208.607 193.179 C 208.743 192.750,209.202 192.213,209.627 191.986 C 210.052 191.758,210.400 191.383,210.400 191.152 C 210.400 190.764,211.784 189.209,216.400 184.408 C 217.390 183.378,220.090 180.498,222.400 178.008 C 224.710 175.518,228.901 171.152,231.713 168.306 C 234.525 165.460,237.111 162.697,237.459 162.166 C 237.807 161.635,238.329 161.200,238.619 161.200 C 238.909 161.200,239.257 160.849,239.394 160.420 C 239.530 159.992,239.992 159.530,240.420 159.394 C 240.849 159.257,241.200 158.942,241.200 158.692 C 241.200 158.215,256.773 142.254,261.433 137.955 C 262.295 137.160,263.914 135.540,265.031 134.355 C 266.148 133.170,268.578 130.779,270.431 129.043 C 272.284 127.307,274.700 125.022,275.800 123.967 C 280.144 119.799,280.932 119.504,282.822 121.335 M28.231 301.018 C 27.920 302.257,28.209 302.800,29.177 302.800 C 29.903 302.800,30.426 301.479,30.095 300.485 C 29.796 299.587,28.497 299.959,28.231 301.018 M370.227 301.906 C 369.525 302.608,370.037 304.400,370.940 304.400 C 371.736 304.400,371.874 304.207,371.840 303.138 C 371.803 301.960,370.879 301.254,370.227 301.906 M368.267 311.867 C 367.586 312.547,368.031 313.600,369.000 313.600 C 369.800 313.600,370.000 313.400,370.000 312.600 C 370.000 311.631,368.947 311.186,368.267 311.867 M32.000 318.200 C 32.000 318.933,32.213 319.200,32.800 319.200 C 33.387 319.200,33.600 318.933,33.600 318.200 C 33.600 317.467,33.387 317.200,32.800 317.200 C 32.213 317.200,32.000 317.467,32.000 318.200 M37.272 330.900 C 37.468 332.281,39.200 332.396,39.200 331.028 C 39.200 330.191,39.009 330.000,38.172 330.000 C 37.335 330.000,37.168 330.167,37.272 330.900 M42.800 342.625 L 42.800 344.400 44.600 344.400 C 46.712 344.400,47.123 343.183,45.500 341.739 C 43.821 340.245,42.800 340.580,42.800 342.625 M354.480 342.010 C 353.715 342.978,353.580 343.568,353.680 345.488 L 353.800 347.800 356.167 347.922 C 358.289 348.031,358.480 347.978,358.008 347.410 C 357.565 346.875,357.617 346.634,358.341 345.862 C 359.584 344.539,359.504 342.800,358.200 342.800 C 357.400 342.800,357.200 342.600,357.200 341.800 C 357.200 340.385,355.669 340.503,354.480 342.010 M46.400 348.200 L 46.400 350.000 48.200 350.000 L 50.000 350.000 50.000 348.200 L 50.000 346.400 48.200 346.400 L 46.400 346.400 46.400 348.200 M361.200 346.776 C 361.200 347.395,361.916 347.645,362.134 347.102 C 362.255 346.802,362.350 346.885,362.368 347.308 C 362.393 347.850,362.166 347.973,361.400 347.834 C 360.714 347.710,360.400 347.833,360.400 348.226 C 360.400 348.542,360.209 348.800,359.976 348.800 C 359.743 348.800,359.664 348.620,359.800 348.400 C 359.936 348.180,359.857 348.000,359.624 348.000 C 358.732 348.000,359.205 349.586,360.168 349.828 C 362.000 350.288,362.526 349.925,362.672 348.100 C 362.791 346.619,362.705 346.400,362.004 346.400 C 361.562 346.400,361.200 346.569,361.200 346.776 M361.642 348.766 C 361.193 349.050,361.233 349.157,361.842 349.315 C 362.320 349.438,362.202 349.496,361.522 349.470 C 360.443 349.429,360.665 348.391,361.749 348.406 C 362.006 348.410,361.960 348.565,361.642 348.766 M341.450 354.820 C 340.598 355.461,339.734 355.883,339.530 355.757 C 339.319 355.626,339.199 356.294,339.252 357.308 L 339.344 359.088 341.872 359.157 C 344.298 359.224,344.400 359.188,344.400 358.260 C 344.400 357.546,344.662 357.243,345.400 357.102 C 346.264 356.937,346.400 357.056,346.400 357.976 C 346.400 358.969,346.522 359.042,348.200 359.057 L 350.000 359.073 350.000 357.337 L 350.000 355.600 348.200 355.600 C 346.547 355.600,346.400 355.519,346.400 354.600 C 346.400 353.090,343.585 353.215,341.450 354.820 M59.200 357.431 L 59.200 359.261 60.900 359.137 L 62.600 359.012 62.722 360.906 C 62.831 362.593,62.947 362.800,63.784 362.800 C 64.528 362.800,64.681 362.967,64.516 363.600 C 64.318 364.358,64.504 364.400,68.073 364.400 C 70.533 364.400,72.027 364.574,72.379 364.900 C 72.810 365.300,72.861 365.300,72.635 364.900 C 72.450 364.573,72.629 364.400,73.152 364.400 C 73.688 364.400,73.932 364.648,73.893 365.156 C 73.853 365.694,73.572 365.883,72.918 365.811 C 72.413 365.755,72.000 365.865,72.000 366.055 C 72.000 366.245,72.315 366.401,72.700 366.403 C 73.085 366.405,73.608 366.854,73.862 367.402 C 74.305 368.357,74.276 368.390,73.162 368.193 C 72.004 367.989,72.000 367.996,72.000 370.035 L 72.000 372.081 73.800 371.937 C 75.444 371.807,75.600 371.872,75.600 372.697 C 75.600 373.322,75.837 373.600,76.372 373.600 C 76.868 373.600,77.190 373.922,77.272 374.500 C 77.378 375.248,77.687 375.421,79.100 375.523 C 80.674 375.637,80.804 375.734,80.850 376.823 C 80.877 377.470,80.923 378.225,80.950 378.500 C 80.985 378.848,82.062 379.035,84.500 379.116 L 88.000 379.231 88.000 378.216 C 88.000 377.264,88.125 377.200,90.000 377.200 C 91.867 377.200,92.000 377.267,92.000 378.200 C 92.000 379.805,94.561 379.662,95.131 378.026 C 95.367 377.349,96.092 376.566,96.842 376.178 L 98.144 375.505 97.172 374.967 C 96.014 374.325,94.544 374.243,94.200 374.800 C 93.841 375.381,92.010 375.291,91.776 374.681 C 91.400 373.702,88.830 373.859,88.417 374.887 C 88.061 375.774,88.050 375.768,88.025 374.700 C 88.004 373.755,88.158 373.600,89.124 373.600 C 92.266 373.600,92.149 371.463,88.983 371.039 C 88.003 370.908,86.380 370.691,85.379 370.558 C 82.024 370.112,83.160 368.973,86.814 369.120 C 90.122 369.252,93.200 368.922,93.200 368.435 C 93.200 368.119,87.587 367.489,85.500 367.570 C 84.765 367.599,84.400 367.412,84.400 367.006 C 84.400 366.597,84.004 366.400,83.182 366.400 C 82.416 366.400,81.592 366.029,80.964 365.400 C 80.196 364.633,79.549 364.400,78.182 364.400 C 76.902 364.400,76.162 364.162,75.555 363.555 C 75.091 363.091,74.101 362.543,73.355 362.337 C 72.608 362.130,72.000 361.701,72.000 361.381 C 72.000 360.938,71.434 360.800,69.614 360.800 C 67.638 360.800,67.155 360.663,66.800 360.000 C 66.470 359.383,65.962 359.200,64.586 359.200 C 62.983 359.200,62.800 359.105,62.800 358.270 C 62.800 357.119,61.249 355.600,60.074 355.600 C 59.303 355.600,59.200 355.815,59.200 357.431 M331.536 360.078 C 330.175 360.561,329.199 361.159,329.089 361.580 C 328.970 362.036,328.353 362.369,327.321 362.534 C 326.448 362.674,325.407 363.151,325.005 363.594 C 324.465 364.191,323.773 364.400,322.338 364.400 C 320.903 364.400,320.400 364.552,320.400 364.986 C 320.400 365.917,319.043 366.400,316.426 366.400 C 314.533 366.400,313.824 366.576,313.200 367.200 C 312.760 367.640,311.900 368.000,311.289 368.000 C 310.673 368.000,309.873 368.356,309.493 368.800 C 309.116 369.240,308.367 369.600,307.828 369.600 C 307.288 369.600,306.736 369.780,306.600 370.000 C 306.464 370.220,306.606 370.400,306.914 370.400 C 307.608 370.400,308.975 371.850,308.526 372.108 C 308.347 372.212,306.805 372.602,305.100 372.975 C 302.269 373.596,302.000 373.739,302.000 374.627 C 302.000 375.162,301.859 375.600,301.686 375.600 C 301.513 375.600,301.371 375.960,301.371 376.400 C 301.371 377.849,305.505 377.566,305.673 376.105 C 305.778 375.199,306.043 374.969,307.200 374.774 C 307.970 374.645,309.005 374.405,309.500 374.242 C 310.843 373.800,310.799 375.868,309.455 376.379 C 308.381 376.787,307.775 378.405,308.515 378.888 C 309.716 379.672,315.393 379.049,315.525 378.118 C 315.637 377.334,315.922 377.224,318.125 377.118 L 320.600 377.000 320.724 375.277 C 320.814 374.034,320.702 373.573,320.324 373.624 C 318.403 373.883,317.200 373.565,317.200 372.800 C 317.200 372.067,318.781 371.666,320.519 371.959 C 320.694 371.988,320.808 371.785,320.772 371.506 C 320.601 370.205,320.850 370.000,322.600 370.000 C 324.253 370.000,324.400 369.919,324.400 369.000 C 324.400 368.200,324.600 368.000,325.400 368.000 C 326.123 368.000,326.400 367.785,326.400 367.223 C 326.400 366.595,326.726 366.422,328.100 366.323 C 329.577 366.216,329.815 366.068,329.917 365.198 C 330.025 364.272,330.168 364.208,331.817 364.339 C 333.407 364.465,333.600 364.390,333.600 363.640 C 333.600 363.011,333.851 362.800,334.600 362.800 C 335.519 362.800,335.600 362.653,335.600 361.000 C 335.600 358.871,335.202 358.781,331.536 360.078 M317.600 368.672 C 315.772 369.216,314.800 369.136,314.800 368.440 C 314.800 367.955,316.186 367.750,318.000 367.968 L 319.400 368.137 317.600 368.672 M77.200 369.000 C 77.200 369.713,76.984 370.000,76.447 370.000 C 75.961 370.000,75.625 369.645,75.502 369.000 C 75.342 368.162,75.464 368.000,76.255 368.000 C 76.996 368.000,77.200 368.216,77.200 369.000 M303.400 368.400 C 303.536 368.620,303.997 368.800,304.424 368.800 C 304.851 368.800,305.200 368.620,305.200 368.400 C 305.200 368.180,304.739 368.000,304.176 368.000 C 303.596 368.000,303.260 368.173,303.400 368.400 M94.600 370.000 C 94.736 370.220,95.207 370.400,95.647 370.400 C 96.087 370.400,96.336 370.220,96.200 370.000 C 96.064 369.780,95.593 369.600,95.153 369.600 C 94.713 369.600,94.464 369.780,94.600 370.000 M314.000 370.800 C 314.000 371.371,313.743 371.592,313.100 371.572 C 312.241 371.545,312.237 371.528,313.000 371.200 C 313.539 370.968,313.604 370.845,313.200 370.822 C 312.667 370.792,312.667 370.745,313.200 370.400 C 314.001 369.883,314.000 369.882,314.000 370.800 M102.400 372.000 C 102.400 372.220,102.749 372.400,103.176 372.400 C 103.603 372.400,104.064 372.220,104.200 372.000 C 104.340 371.773,104.004 371.600,103.424 371.600 C 102.861 371.600,102.400 371.780,102.400 372.000 M287.466 375.300 C 286.830 375.709,287.962 376.467,288.881 376.248 C 289.718 376.047,291.125 377.008,290.666 377.467 C 290.484 377.650,284.194 377.849,276.690 377.909 C 265.622 377.998,262.821 378.130,261.861 378.609 C 260.832 379.123,252.249 379.200,196.130 379.200 L 131.583 379.200 131.127 378.200 C 130.657 377.169,120.800 376.556,120.800 377.558 C 120.800 378.137,117.468 378.332,116.800 377.792 C 116.437 377.498,113.282 377.112,108.800 376.812 C 104.730 376.540,101.331 376.252,101.247 376.173 C 101.163 376.093,100.758 376.208,100.347 376.428 C 99.265 377.008,99.338 379.038,100.452 379.329 C 101.021 379.478,101.224 379.759,101.065 380.176 C 100.862 380.705,101.252 380.800,103.613 380.800 C 106.319 380.800,106.400 380.829,106.400 381.800 L 106.400 382.800 199.200 382.800 L 292.000 382.800 292.000 381.800 C 292.000 380.836,292.093 380.800,294.600 380.800 C 296.933 380.800,297.200 380.718,297.200 380.000 C 297.200 379.319,297.467 379.200,299.000 379.200 C 300.790 379.200,300.800 379.193,300.800 377.800 L 300.800 376.400 298.000 376.400 C 296.460 376.400,295.200 376.242,295.200 376.049 C 295.200 374.976,288.915 374.368,287.466 375.300 " stroke="none" fill="#f2f4f4" fill-rule="evenodd"></path><path id="path3" d="M109.141 61.764 C 103.781 62.115,102.332 62.337,101.710 62.900 C 101.189 63.371,100.280 63.600,98.925 63.600 C 96.322 63.600,88.984 66.285,86.046 68.313 C 84.861 69.131,83.456 70.092,82.922 70.449 C 81.079 71.682,74.400 78.086,74.400 78.619 C 74.400 78.914,74.069 79.390,73.663 79.677 C 73.258 79.965,72.689 80.650,72.399 81.200 C 72.108 81.750,71.389 82.830,70.801 83.600 C 69.516 85.284,67.200 90.344,67.200 91.469 C 67.200 91.912,66.856 93.273,66.436 94.494 C 66.017 95.714,65.560 97.948,65.421 99.457 C 65.283 100.965,64.892 104.720,64.554 107.800 C 63.733 115.274,63.863 289.471,64.691 290.468 C 64.961 290.793,65.294 292.396,65.433 294.030 C 65.571 295.663,66.025 298.144,66.442 299.542 C 66.859 300.940,67.203 302.650,67.207 303.342 C 67.211 304.068,67.719 305.344,68.407 306.360 C 69.063 307.328,69.600 308.257,69.600 308.425 C 69.600 309.047,72.998 314.668,74.543 316.600 C 77.197 319.921,82.226 324.458,84.800 325.854 C 85.790 326.391,87.165 327.243,87.856 327.746 C 88.547 328.249,90.437 329.060,92.056 329.549 C 93.675 330.037,96.170 330.808,97.600 331.261 C 99.190 331.765,102.687 332.301,106.600 332.641 C 110.120 332.946,114.204 333.377,115.677 333.598 C 118.940 334.088,249.753 334.067,274.600 333.572 C 292.038 333.225,296.680 332.914,300.400 331.843 C 301.610 331.495,303.071 331.207,303.646 331.205 C 304.221 331.202,305.150 330.840,305.709 330.400 C 306.269 329.960,306.968 329.600,307.263 329.600 C 308.869 329.600,319.971 323.541,320.789 322.218 C 321.257 321.461,321.959 320.740,322.349 320.616 C 324.684 319.875,331.248 308.998,332.640 303.566 C 332.978 302.246,333.518 300.537,333.840 299.767 C 334.631 297.873,335.634 291.240,336.013 285.400 C 336.650 275.579,336.445 112.330,335.789 106.800 C 334.557 96.408,334.388 95.344,333.630 93.200 C 333.203 91.990,332.723 90.284,332.565 89.408 C 332.406 88.532,331.710 87.002,331.018 86.008 C 330.326 85.014,329.506 83.570,329.196 82.800 C 328.489 81.047,325.543 77.323,323.818 76.000 C 323.100 75.450,321.745 74.145,320.806 73.100 C 319.867 72.055,318.879 71.200,318.611 71.200 C 318.343 71.200,317.789 70.830,317.380 70.378 C 316.521 69.429,309.391 65.524,306.773 64.569 C 301.875 62.783,295.709 61.977,284.000 61.593 C 267.804 61.063,117.604 61.209,109.141 61.764 M269.206 63.581 C 268.660 64.001,268.120 64.201,268.006 64.026 C 267.566 63.347,266.132 63.216,265.379 63.785 C 264.951 64.109,264.150 64.398,263.600 64.427 C 262.857 64.467,263.007 64.576,264.183 64.851 C 265.054 65.055,265.909 65.442,266.083 65.711 C 266.328 66.088,266.481 66.074,266.755 65.650 C 267.268 64.853,269.144 64.976,269.807 65.850 C 270.294 66.494,270.376 66.508,270.387 65.947 C 270.410 64.803,273.600 64.813,273.600 65.957 C 273.600 66.167,274.030 65.956,274.556 65.488 C 275.541 64.611,275.541 63.600,274.557 63.600 C 274.251 63.600,274.000 63.407,274.000 63.171 C 274.000 62.523,286.193 62.986,288.857 63.734 C 290.036 64.065,293.070 64.635,295.600 65.000 C 304.551 66.293,304.896 66.387,304.684 67.495 L 304.497 68.471 307.349 68.234 C 309.284 68.074,309.922 68.118,309.335 68.373 C 306.293 69.694,308.364 72.800,312.287 72.800 C 313.393 72.800,314.411 73.048,314.819 73.417 C 315.686 74.202,318.400 74.683,318.400 74.052 C 318.400 73.804,318.600 73.600,318.843 73.600 C 319.117 73.600,319.190 73.985,319.034 74.608 C 318.820 75.458,319.001 75.746,320.190 76.447 C 320.966 76.905,321.600 77.537,321.600 77.852 C 321.600 78.167,321.902 78.541,322.272 78.683 C 322.641 78.825,323.406 79.467,323.972 80.111 C 324.537 80.754,325.294 81.602,325.654 81.994 C 326.013 82.386,326.517 83.342,326.773 84.118 C 327.029 84.894,327.500 85.630,327.819 85.752 C 328.160 85.883,328.405 86.518,328.412 87.287 C 328.419 88.009,328.868 89.320,329.410 90.200 C 330.507 91.980,330.768 95.368,329.930 96.926 C 329.019 98.620,328.833 100.904,329.501 102.191 C 330.788 104.671,330.820 115.317,329.609 137.800 C 329.408 141.540,329.008 151.245,328.721 159.367 L 328.200 174.135 327.125 174.493 C 324.270 175.442,322.929 186.878,325.400 189.200 C 326.432 190.169,327.026 201.200,326.046 201.200 C 325.059 201.200,324.400 205.268,324.400 211.356 C 324.400 214.770,324.218 217.976,323.996 218.481 C 323.616 219.343,322.972 245.051,322.551 276.156 C 322.386 288.307,322.416 288.985,323.176 290.444 L 323.974 291.974 323.003 294.553 C 322.470 295.971,321.827 298.721,321.576 300.665 C 321.325 302.609,320.958 304.513,320.760 304.895 C 320.562 305.277,320.400 305.837,320.400 306.141 C 320.400 306.444,320.058 307.127,319.639 307.659 C 319.221 308.191,318.816 309.066,318.739 309.603 C 318.663 310.140,318.200 310.778,317.712 311.021 C 316.548 311.599,315.384 313.126,315.059 314.500 C 314.917 315.105,314.681 316.095,314.536 316.700 C 314.259 317.852,313.361 318.766,312.484 318.787 C 312.200 318.794,311.435 319.194,310.783 319.676 C 309.678 320.493,309.465 320.517,307.589 320.036 C 306.047 319.641,305.446 319.630,305.013 319.989 C 304.571 320.356,304.027 320.263,302.524 319.566 C 300.607 318.677,300.526 318.674,281.478 318.777 L 262.355 318.881 261.396 319.841 L 260.436 320.800 195.618 320.800 L 130.800 320.800 130.800 319.791 L 130.800 318.782 126.300 318.976 C 123.825 319.083,121.150 319.177,120.355 319.185 C 119.033 319.199,118.927 319.285,119.102 320.200 C 119.263 321.040,119.141 321.200,118.341 321.200 C 117.817 321.200,116.716 321.560,115.896 322.000 C 112.699 323.713,106.400 322.773,106.400 320.583 C 106.400 319.495,103.059 319.551,102.151 320.654 C 101.198 321.811,99.975 321.704,98.684 320.350 C 98.291 319.938,97.796 319.600,97.584 319.600 C 96.889 319.600,97.183 318.997,98.074 318.595 C 98.555 318.378,99.020 317.975,99.107 317.700 C 99.304 317.081,95.378 316.988,94.998 317.603 C 94.320 318.700,88.056 317.937,87.627 316.705 C 87.156 315.354,82.902 311.200,81.989 311.200 C 80.800 311.200,78.196 306.329,78.790 305.218 C 79.076 304.684,79.022 304.350,78.592 303.993 C 77.879 303.401,77.809 299.138,78.468 296.400 C 78.706 295.410,78.876 293.880,78.845 293.000 C 78.587 285.600,78.095 256.494,78.053 246.146 C 78.009 235.596,77.893 233.086,77.402 232.146 C 76.908 231.197,76.805 228.718,76.802 217.712 C 76.800 204.709,76.781 204.388,75.900 202.712 C 75.107 201.204,74.504 198.350,73.741 192.490 C 73.590 191.336,73.731 190.333,74.173 189.401 C 74.758 188.169,74.815 185.796,74.714 167.101 L 74.600 146.180 73.700 145.036 C 72.858 143.966,72.799 143.500,72.787 137.846 C 72.775 131.816,72.483 130.400,71.256 130.400 C 70.934 130.400,70.800 128.514,70.800 123.963 C 70.800 118.060,70.731 117.439,69.972 116.474 C 69.384 115.725,69.207 115.072,69.362 114.211 C 69.482 113.545,69.770 110.248,70.003 106.884 L 70.426 100.769 69.213 98.227 C 67.884 95.444,67.569 92.940,68.600 93.357 C 68.930 93.491,69.470 93.709,69.800 93.843 C 70.445 94.104,70.531 93.544,70.406 89.900 C 70.367 88.772,70.515 88.000,70.770 88.000 C 71.007 88.000,71.203 87.595,71.206 87.100 C 71.219 85.265,71.916 84.888,73.010 86.126 C 74.045 87.296,74.243 87.173,74.480 85.210 C 74.584 84.348,75.441 83.618,76.978 83.080 C 77.186 83.007,76.961 82.150,76.477 81.174 L 75.598 79.400 76.432 79.024 C 76.991 78.772,77.516 78.805,78.027 79.124 C 79.251 79.889,79.484 79.704,79.699 77.800 C 79.970 75.390,80.439 74.937,82.993 74.618 C 84.514 74.428,85.227 74.146,85.377 73.673 C 85.494 73.303,86.140 72.756,86.811 72.459 C 87.806 72.019,87.943 71.813,87.555 71.346 C 86.629 70.230,88.773 68.003,90.780 67.999 C 91.121 67.998,91.957 67.657,92.638 67.242 C 93.480 66.729,94.953 66.418,97.238 66.273 C 99.087 66.155,103.512 65.879,107.070 65.659 C 110.629 65.440,113.939 65.047,114.425 64.787 C 114.912 64.526,115.960 64.406,116.755 64.520 C 117.550 64.634,117.975 64.638,117.700 64.530 C 117.425 64.422,117.200 63.988,117.200 63.567 C 117.200 62.814,118.572 62.800,193.700 62.809 C 269.058 62.818,270.185 62.829,269.206 63.581 M273.597 63.100 C 273.595 63.265,273.145 63.608,272.597 63.862 C 272.049 64.117,271.600 64.162,271.600 63.962 C 271.600 63.763,271.330 63.600,271.000 63.600 C 270.670 63.600,270.400 63.420,270.400 63.200 C 270.400 62.980,271.120 62.800,272.000 62.800 C 272.880 62.800,273.599 62.935,273.597 63.100 M291.100 65.503 C 290.326 65.675,290.180 66.217,290.804 66.602 C 291.300 66.909,292.800 66.469,292.800 66.016 C 292.800 65.569,291.954 65.313,291.100 65.503 M287.544 66.053 C 287.245 66.249,286.325 66.301,285.501 66.169 C 283.832 65.903,283.095 66.709,284.004 67.805 C 285.211 69.259,289.539 68.284,289.587 66.547 C 289.604 65.941,288.227 65.608,287.544 66.053 M280.639 66.338 C 280.500 66.561,280.582 66.865,280.820 67.012 C 281.435 67.393,281.832 66.872,281.318 66.358 C 281.031 66.071,280.807 66.064,280.639 66.338 M99.611 67.787 C 99.175 68.312,99.257 68.400,100.184 68.400 C 100.842 68.400,101.205 68.214,101.108 67.925 C 100.860 67.179,100.168 67.116,99.611 67.787 M104.700 81.098 C 106.735 81.171,110.065 81.171,112.100 81.098 C 114.135 81.025,112.470 80.966,108.400 80.966 C 104.330 80.966,102.665 81.025,104.700 81.098 M292.517 81.097 C 294.011 81.174,296.351 81.174,297.717 81.096 C 299.082 81.018,297.860 80.955,295.000 80.955 C 292.140 80.956,291.022 81.020,292.517 81.097 M309.200 82.582 C 309.200 82.690,309.785 83.075,310.500 83.437 C 311.843 84.116,313.977 86.136,314.740 87.450 C 314.980 87.863,315.181 87.976,315.188 87.701 C 315.208 86.886,312.373 84.003,310.727 83.163 C 309.887 82.734,309.200 82.473,309.200 82.582 M86.575 85.700 L 85.400 87.000 86.700 85.825 C 87.912 84.730,88.184 84.400,87.875 84.400 C 87.806 84.400,87.221 84.985,86.575 85.700 M316.977 106.400 C 316.977 112.890,317.032 115.545,317.099 112.300 C 317.166 109.055,317.166 103.745,317.099 100.500 C 317.032 97.255,316.977 99.910,316.977 106.400 M82.901 98.200 C 82.905 99.080,82.987 99.393,83.083 98.895 C 83.179 98.398,83.175 97.678,83.075 97.295 C 82.975 96.913,82.896 97.320,82.901 98.200 M316.996 206.400 C 316.996 251.610,317.043 270.105,317.100 247.500 C 317.157 224.895,317.157 187.905,317.100 165.300 C 317.043 142.695,316.996 161.190,316.996 206.400 M70.400 137.800 C 70.400 142.200,70.251 144.800,70.000 144.800 C 69.749 144.800,69.600 142.289,69.600 138.067 C 69.600 132.147,69.724 130.800,70.267 130.800 C 70.340 130.800,70.400 133.950,70.400 137.800 M82.991 266.400 C 82.991 284.990,83.040 292.595,83.100 283.300 C 83.160 274.005,83.160 258.795,83.100 249.500 C 83.040 240.205,82.991 247.810,82.991 266.400 M316.920 292.400 C 316.920 293.610,316.995 294.105,317.087 293.500 C 317.178 292.895,317.178 291.905,317.087 291.300 C 316.995 290.695,316.920 291.190,316.920 292.400 M316.901 299.800 C 316.905 300.680,316.987 300.993,317.083 300.495 C 317.179 299.998,317.175 299.278,317.075 298.895 C 316.975 298.513,316.896 298.920,316.901 299.800 M83.314 302.600 C 83.317 303.700,83.395 304.103,83.487 303.495 C 83.579 302.886,83.577 301.986,83.482 301.495 C 83.387 301.003,83.311 301.500,83.314 302.600 M316.464 303.361 C 316.224 307.715,310.471 313.815,306.400 314.031 C 306.047 314.050,305.991 314.141,306.263 314.252 C 308.089 315.000,314.401 310.628,315.254 308.025 C 315.511 307.241,315.976 306.208,316.288 305.728 C 316.604 305.242,316.783 304.269,316.691 303.528 C 316.536 302.266,316.525 302.257,316.464 303.361 M83.600 305.527 C 83.600 305.733,83.858 306.117,84.174 306.379 C 84.490 306.641,84.859 307.358,84.994 307.971 C 85.129 308.585,85.807 309.608,86.501 310.244 L 87.763 311.400 86.718 309.975 C 86.143 309.191,85.405 307.908,85.077 307.123 C 84.499 305.740,83.600 304.768,83.600 305.527 M93.119 314.041 C 93.495 314.446,94.817 314.613,97.919 314.647 L 102.200 314.695 98.200 314.430 C 96.000 314.285,93.840 314.012,93.400 313.824 C 92.727 313.537,92.683 313.571,93.119 314.041 M118.713 314.695 C 119.876 314.776,121.676 314.776,122.713 314.693 C 123.751 314.611,122.800 314.545,120.600 314.546 C 118.400 314.547,117.551 314.614,118.713 314.695 M163.868 314.700 C 181.946 314.758,211.646 314.758,229.868 314.700 C 248.091 314.642,233.300 314.595,197.000 314.595 C 160.700 314.595,145.791 314.642,163.868 314.700 M282.100 314.697 C 283.805 314.772,286.595 314.772,288.300 314.697 C 290.005 314.622,288.610 314.561,285.200 314.561 C 281.790 314.561,280.395 314.622,282.100 314.697 M298.300 314.696 C 299.675 314.774,301.925 314.774,303.300 314.696 C 304.675 314.618,303.550 314.554,300.800 314.554 C 298.050 314.554,296.925 314.618,298.300 314.696 M317.600 315.443 C 317.600 315.865,317.382 316.002,316.967 315.843 C 316.619 315.709,316.249 315.600,316.144 315.600 C 316.039 315.600,316.064 315.420,316.200 315.200 C 316.594 314.563,317.600 314.737,317.600 315.443 " stroke="none" fill="#042d81" fill-rule="evenodd"></path><path id="path4" d="M92.400 27.400 C 92.400 28.200,92.200 28.400,91.400 28.400 C 90.097 28.400,90.110 29.112,91.419 29.440 C 93.896 30.062,98.400 28.726,98.400 27.369 C 98.400 26.430,98.308 26.400,95.400 26.400 C 92.467 26.400,92.400 26.422,92.400 27.400 M299.600 26.767 C 299.600 26.969,299.498 27.400,299.373 27.725 C 299.194 28.192,299.675 28.371,301.673 28.580 C 303.063 28.726,305.116 29.037,306.235 29.272 C 309.175 29.888,311.888 27.610,309.367 26.643 C 308.350 26.252,299.600 26.364,299.600 26.767 M83.700 28.282 C 82.490 28.515,82.431 30.574,83.615 31.208 C 85.123 32.015,86.782 31.037,86.794 29.333 C 86.797 28.857,87.025 28.376,87.300 28.265 C 87.901 28.022,84.976 28.037,83.700 28.282 M312.254 28.306 C 312.503 28.468,312.773 28.948,312.854 29.374 C 313.062 30.470,316.998 31.820,318.281 31.236 C 319.551 30.657,319.436 29.915,318.100 30.071 C 317.159 30.181,316.982 30.041,316.873 29.100 C 316.750 28.031,316.676 28.000,314.273 28.006 C 312.913 28.009,312.004 28.144,312.254 28.306 M77.600 31.000 C 77.600 31.971,77.520 32.000,74.800 32.000 C 72.267 32.000,72.000 32.076,72.000 32.800 C 72.000 33.579,71.159 33.824,69.148 33.629 C 68.754 33.591,68.394 33.970,68.240 34.583 C 68.005 35.521,66.886 35.906,65.124 35.655 C 64.973 35.634,64.736 35.973,64.597 36.408 C 64.457 36.849,63.992 37.200,63.546 37.200 C 62.480 37.200,62.640 39.325,63.722 39.530 C 64.664 39.709,67.967 38.151,68.259 37.390 C 68.384 37.066,68.852 36.800,69.299 36.800 C 70.080 36.800,71.471 36.238,75.800 34.172 C 76.900 33.647,78.557 33.029,79.483 32.798 C 82.677 32.002,82.855 30.000,79.733 30.000 C 77.724 30.000,77.600 30.058,77.600 31.000 M319.600 31.127 C 319.600 32.373,320.351 32.864,323.072 33.401 C 323.772 33.539,324.559 33.910,324.821 34.226 C 325.878 35.499,328.000 34.948,328.000 33.400 L 328.000 32.000 325.428 32.000 C 323.065 32.000,322.845 31.927,322.728 31.100 C 322.504 29.527,319.600 29.552,319.600 31.127 M328.475 34.867 C 328.574 35.873,328.855 36.223,329.840 36.567 C 330.521 36.805,331.389 37.315,331.768 37.700 C 332.147 38.085,332.830 38.400,333.285 38.400 C 333.741 38.400,335.033 39.171,336.157 40.114 C 337.989 41.651,339.211 42.533,341.256 43.795 C 343.710 45.308,348.833 50.095,351.656 53.511 C 353.495 55.737,355.315 57.669,355.700 57.806 C 356.085 57.942,356.400 58.380,356.400 58.778 C 356.400 59.712,357.362 60.505,358.281 60.328 C 359.445 60.103,359.287 57.441,358.100 57.272 C 357.522 57.190,357.200 56.868,357.200 56.372 C 357.200 55.867,356.924 55.600,356.400 55.600 C 355.777 55.600,355.600 55.333,355.600 54.392 C 355.600 53.304,355.501 53.210,354.600 53.436 C 353.777 53.642,353.600 53.542,353.600 52.867 C 353.600 52.416,353.417 51.934,353.193 51.796 C 352.970 51.658,352.891 51.377,353.017 51.172 C 353.144 50.968,352.967 50.800,352.624 50.800 C 352.198 50.800,352.000 50.421,352.000 49.608 C 352.000 48.669,351.787 48.362,351.000 48.164 C 350.374 48.007,350.000 47.630,350.000 47.157 C 350.000 46.616,349.714 46.400,349.000 46.400 C 348.211 46.400,348.000 46.197,348.000 45.440 C 348.000 44.540,347.886 44.491,346.200 44.667 C 344.485 44.846,344.400 44.806,344.400 43.827 C 344.400 43.079,344.190 42.800,343.628 42.800 C 343.132 42.800,342.810 42.478,342.728 41.900 C 342.646 41.322,342.278 40.954,341.700 40.872 C 341.122 40.790,340.800 40.468,340.800 39.972 C 340.800 39.420,340.522 39.200,339.823 39.200 C 339.078 39.200,338.881 39.019,338.993 38.439 C 339.144 37.650,338.277 37.216,336.527 37.205 C 336.011 37.202,335.551 36.876,335.403 36.408 C 335.264 35.973,335.027 35.634,334.876 35.655 C 333.162 35.900,332.066 35.519,331.836 34.600 C 331.401 32.869,328.301 33.115,328.475 34.867 M59.200 40.000 C 59.200 40.518,58.933 40.800,58.443 40.800 C 57.980 40.800,57.594 41.169,57.448 41.752 C 57.316 42.276,56.847 42.799,56.404 42.915 C 55.170 43.237,55.332 44.800,56.600 44.800 C 57.282 44.800,57.603 44.577,57.610 44.100 C 57.617 43.663,58.256 43.127,59.310 42.673 C 62.029 41.504,62.194 41.372,62.327 40.260 C 62.445 39.266,62.351 39.200,60.827 39.200 C 59.467 39.200,59.200 39.331,59.200 40.000 M50.327 49.100 C 50.227 49.964,49.964 50.227,49.100 50.327 C 48.470 50.399,48.000 50.698,48.000 51.027 C 48.000 51.656,49.841 51.815,50.714 51.261 C 51.441 50.801,51.671 48.000,50.983 48.000 C 50.692 48.000,50.396 48.495,50.327 49.100 M45.600 53.963 C 45.600 54.263,45.345 54.388,45.000 54.255 C 44.592 54.099,44.400 54.277,44.400 54.813 C 44.400 55.333,44.129 55.600,43.600 55.600 C 42.957 55.600,42.800 55.867,42.800 56.957 C 42.800 57.773,42.569 58.403,42.220 58.537 C 41.816 58.692,41.703 58.554,41.848 58.080 C 41.962 57.706,41.779 57.850,41.442 58.400 C 41.104 58.950,40.822 59.715,40.814 60.100 C 40.805 60.540,40.488 60.800,39.961 60.800 C 39.204 60.800,39.136 60.992,39.261 62.783 C 39.391 64.645,39.338 64.774,38.400 64.883 C 37.594 64.977,37.376 65.252,37.275 66.300 C 37.070 68.424,39.207 68.203,40.201 65.998 C 40.598 65.116,41.166 64.194,41.462 63.949 C 41.758 63.703,42.000 63.080,42.000 62.565 C 42.000 62.038,42.350 61.441,42.800 61.200 C 43.240 60.965,43.600 60.507,43.600 60.182 C 43.600 59.858,44.136 59.032,44.791 58.346 C 46.103 56.973,46.771 54.611,46.050 53.890 C 45.717 53.557,45.600 53.575,45.600 53.963 M358.836 61.700 C 358.473 62.666,359.951 65.892,361.043 66.520 C 361.349 66.696,361.600 67.351,361.600 67.976 C 361.600 69.441,362.849 71.020,363.738 70.679 C 364.205 70.500,364.400 69.943,364.400 68.789 C 364.400 67.586,364.267 67.232,363.900 67.453 C 363.581 67.645,363.605 67.501,363.968 67.054 C 364.280 66.670,364.370 66.386,364.168 66.425 C 363.173 66.614,362.869 66.256,362.621 64.600 C 362.408 63.178,362.188 62.800,361.575 62.800 C 361.015 62.800,360.800 62.523,360.800 61.800 C 360.800 60.484,359.321 60.409,358.836 61.700 M35.809 68.324 C 35.090 69.043,35.647 71.200,36.551 71.200 C 37.754 71.200,38.430 70.403,38.147 69.319 C 37.943 68.540,36.295 67.838,35.809 68.324 M33.600 74.227 C 33.600 76.416,33.618 76.451,34.693 76.327 C 36.938 76.066,37.032 72.000,34.792 72.000 C 33.612 72.000,33.600 72.022,33.600 74.227 M364.400 73.572 C 364.400 75.052,364.493 75.200,365.424 75.200 C 366.868 75.200,366.752 72.278,365.300 72.072 C 364.493 71.958,364.400 72.113,364.400 73.572 M365.060 76.189 C 364.792 76.887,365.545 79.274,366.166 79.694 C 367.469 80.576,368.000 80.028,368.000 77.800 L 368.000 75.600 366.643 75.600 C 365.817 75.600,365.197 75.830,365.060 76.189 M32.000 79.201 C 32.000 81.094,32.070 81.246,32.887 81.128 C 35.147 80.802,35.294 77.540,33.060 77.273 C 32.035 77.151,32.000 77.214,32.000 79.201 M95.665 81.831 C 89.766 82.470,87.120 84.342,84.654 89.621 L 83.616 91.843 83.609 197.021 C 83.605 256.063,83.756 302.814,83.953 303.600 C 84.146 304.370,84.594 305.540,84.949 306.200 C 85.305 306.860,85.596 307.601,85.598 307.846 C 85.605 309.184,89.678 312.390,92.508 313.285 L 95.400 314.200 200.400 314.200 L 305.400 314.200 307.713 313.266 C 311.288 311.823,313.124 310.187,314.967 306.800 L 316.600 303.800 316.600 197.800 L 316.600 91.800 315.450 89.614 C 312.983 84.926,309.736 82.436,305.200 81.752 C 301.769 81.235,100.465 81.311,95.665 81.831 M367.500 81.428 C 366.453 82.493,367.709 87.299,368.986 87.117 C 370.362 86.919,370.421 83.200,369.048 83.200 C 368.276 83.200,368.025 82.967,367.927 82.162 C 367.857 81.591,367.665 81.261,367.500 81.428 M306.870 83.339 C 307.063 83.685,307.861 84.088,308.643 84.235 C 310.001 84.489,312.000 86.022,312.000 86.809 C 312.000 87.014,312.450 87.476,313.000 87.837 C 313.789 88.354,314.000 88.827,314.000 90.083 C 314.000 91.338,314.169 91.719,314.800 91.884 C 315.597 92.093,315.600 92.425,315.590 196.747 L 315.579 301.400 314.664 304.087 C 314.160 305.564,313.478 307.094,313.149 307.487 C 312.820 307.879,312.257 308.673,311.898 309.251 C 311.539 309.829,310.741 310.428,310.123 310.582 C 309.505 310.736,308.683 311.148,308.295 311.498 C 306.979 312.684,300.237 312.761,199.000 312.755 C 95.334 312.749,91.969 312.705,90.994 311.313 C 90.685 310.871,89.885 310.284,89.216 310.007 C 88.547 309.730,88.000 309.300,88.000 309.051 C 87.999 308.803,87.574 308.106,87.055 307.502 C 86.524 306.885,85.886 305.346,85.598 303.990 C 85.316 302.663,84.931 301.481,84.743 301.365 C 83.914 300.853,84.339 92.109,85.169 91.892 C 85.729 91.746,86.012 91.190,86.214 89.846 C 86.388 88.686,86.694 88.000,87.038 88.000 C 87.339 88.000,87.698 87.550,87.836 87.000 C 87.974 86.450,88.362 86.000,88.697 86.000 C 89.033 86.000,89.728 85.547,90.242 84.992 C 90.756 84.438,91.721 83.876,92.388 83.742 C 93.055 83.609,93.600 83.343,93.600 83.151 C 93.600 82.801,179.124 82.550,262.559 82.655 C 302.068 82.705,306.554 82.774,306.870 83.339 M32.013 83.700 C 32.002 84.603,31.821 84.800,31.000 84.800 C 30.017 84.800,30.000 84.853,30.000 88.000 C 30.000 91.130,30.021 91.200,30.981 91.200 C 32.566 91.200,33.889 85.003,32.646 83.400 C 32.042 82.621,32.025 82.629,32.013 83.700 M307.276 86.647 C 307.632 87.003,308.123 87.171,308.368 87.020 C 309.019 86.617,308.488 86.000,307.491 86.000 C 306.696 86.000,306.679 86.051,307.276 86.647 M309.600 88.800 C 309.600 89.240,309.780 89.600,310.000 89.600 C 310.220 89.600,310.400 89.240,310.400 88.800 C 310.400 88.360,310.220 88.000,310.000 88.000 C 309.780 88.000,309.600 88.360,309.600 88.800 M369.300 90.455 C 368.554 91.209,368.792 95.804,369.811 100.300 C 370.161 101.841,371.456 101.439,371.743 99.700 C 372.397 95.746,372.068 92.400,371.025 92.400 C 370.232 92.400,370.027 92.172,369.925 91.175 C 369.825 90.192,369.701 90.050,369.300 90.455 M86.000 93.600 C 86.000 94.380,86.424 94.642,86.906 94.161 C 87.226 93.840,86.807 92.800,86.357 92.800 C 86.161 92.800,86.000 93.160,86.000 93.600 M30.000 94.508 C 30.000 95.629,28.852 96.324,28.338 95.514 C 28.159 95.231,28.037 99.770,28.067 105.600 C 28.109 113.962,28.181 115.290,28.405 111.889 C 28.659 108.031,29.181 105.540,29.212 108.033 C 29.239 110.140,30.131 107.453,30.480 104.216 C 31.296 96.647,31.329 94.605,30.646 94.038 C 30.081 93.569,30.000 93.628,30.000 94.508 M306.000 94.600 C 306.000 95.222,306.227 95.600,306.600 95.600 C 306.973 95.600,307.200 95.222,307.200 94.600 C 307.200 93.978,306.973 93.600,306.600 93.600 C 306.227 93.600,306.000 93.978,306.000 94.600 M279.200 121.058 C 278.430 121.603,276.900 122.912,275.800 123.967 C 274.700 125.022,272.284 127.307,270.431 129.043 C 268.578 130.779,266.148 133.170,265.031 134.355 C 263.914 135.540,262.295 137.160,261.433 137.955 C 256.773 142.254,241.200 158.215,241.200 158.692 C 241.200 158.942,240.849 159.257,240.420 159.394 C 239.992 159.530,239.530 159.992,239.394 160.420 C 239.257 160.849,238.909 161.200,238.619 161.200 C 238.329 161.200,237.807 161.635,237.459 162.166 C 237.111 162.697,234.525 165.460,231.713 168.306 C 228.901 171.152,224.710 175.518,222.400 178.008 C 220.090 180.498,217.390 183.378,216.400 184.408 C 211.784 189.209,210.400 190.764,210.400 191.152 C 210.400 191.383,210.052 191.758,209.627 191.986 C 209.202 192.213,208.743 192.750,208.607 193.179 C 208.470 193.608,208.008 194.070,207.580 194.206 C 207.151 194.343,206.800 194.607,206.800 194.794 C 206.800 194.982,205.315 196.675,203.500 198.557 C 199.014 203.208,195.841 206.738,195.600 207.345 C 195.405 207.835,194.901 208.482,193.530 209.998 C 193.162 210.406,192.661 211.113,192.416 211.570 C 191.897 212.540,190.537 212.655,189.634 211.803 C 183.737 206.250,182.145 204.817,181.860 204.809 C 181.452 204.798,178.000 201.196,178.000 200.782 C 178.000 200.622,177.359 200.187,176.576 199.815 C 175.793 199.444,175.053 198.883,174.933 198.570 C 174.813 198.256,174.494 198.000,174.225 198.000 C 173.956 198.000,173.494 197.550,173.200 197.000 C 172.906 196.450,172.532 196.000,172.369 196.000 C 172.206 196.000,171.261 195.235,170.269 194.300 C 167.862 192.032,164.261 188.911,162.132 187.246 C 161.179 186.502,160.400 185.749,160.400 185.573 C 160.400 185.398,160.054 185.144,159.630 185.010 C 159.207 184.875,158.154 184.079,157.290 183.241 C 154.846 180.869,153.917 180.822,151.674 182.954 C 150.643 183.934,149.215 185.285,148.500 185.955 C 147.785 186.625,147.200 187.292,147.200 187.438 C 147.200 187.690,146.595 188.340,141.356 193.715 C 138.122 197.033,138.292 198.513,142.356 202.411 C 143.920 203.912,145.201 205.288,145.202 205.470 C 145.203 205.651,146.036 206.700,147.051 207.800 C 154.691 216.073,156.550 218.039,159.200 220.647 C 160.850 222.271,162.337 223.734,162.504 223.900 C 165.129 226.489,168.800 230.504,168.800 230.783 C 168.800 230.983,169.160 231.260,169.600 231.400 C 170.040 231.540,170.400 231.812,170.400 232.005 C 170.400 232.199,172.425 234.436,174.900 236.977 C 177.375 239.519,180.210 242.532,181.200 243.673 C 182.816 245.536,185.702 248.605,192.547 255.741 C 197.085 260.472,198.715 261.252,200.283 259.448 C 200.739 258.925,201.277 258.430,201.479 258.348 C 201.681 258.267,202.457 257.120,203.202 255.800 C 203.947 254.480,205.331 252.329,206.278 251.020 C 207.225 249.711,208.000 248.434,208.000 248.182 C 208.000 247.930,208.360 247.398,208.800 247.000 C 209.240 246.602,209.600 246.032,209.600 245.734 C 209.600 245.436,209.960 244.884,210.400 244.507 C 210.840 244.130,211.200 243.617,211.200 243.366 C 211.200 243.115,211.740 242.231,212.400 241.400 C 213.060 240.569,213.600 239.664,213.600 239.388 C 213.600 239.112,213.870 238.782,214.200 238.655 C 214.530 238.529,214.800 238.177,214.800 237.875 C 214.800 237.572,215.144 237.013,215.563 236.633 C 215.983 236.253,216.559 235.370,216.843 234.671 C 217.127 233.972,217.684 233.165,218.080 232.877 C 218.476 232.590,218.800 232.095,218.800 231.777 C 218.800 231.460,218.989 231.200,219.220 231.200 C 219.452 231.200,219.922 230.528,220.265 229.707 C 220.608 228.885,221.229 227.975,221.644 227.684 C 222.060 227.393,222.400 226.966,222.400 226.735 C 222.400 226.504,222.850 225.781,223.400 225.127 C 223.950 224.473,224.400 223.592,224.400 223.169 C 224.400 222.746,224.565 222.400,224.766 222.400 C 225.264 222.400,228.000 218.629,228.000 217.943 C 228.000 217.640,228.360 217.168,228.800 216.893 C 229.240 216.618,229.600 216.198,229.600 215.960 C 229.600 215.722,229.970 215.048,230.421 214.463 C 231.699 212.810,233.340 210.580,234.000 209.600 C 234.330 209.110,235.095 208.075,235.700 207.300 C 236.305 206.524,236.800 205.671,236.800 205.403 C 236.800 205.136,237.205 204.455,237.700 203.891 C 239.933 201.347,240.418 200.668,240.645 199.765 C 240.778 199.234,241.115 198.800,241.395 198.800 C 241.674 198.800,242.127 198.260,242.400 197.600 C 242.673 196.940,243.025 196.400,243.181 196.400 C 243.337 196.400,243.715 195.905,244.021 195.300 C 244.327 194.695,244.811 193.930,245.098 193.600 C 245.741 192.858,247.470 190.513,248.800 188.578 C 249.350 187.777,250.115 186.830,250.500 186.472 C 250.885 186.115,251.200 185.661,251.200 185.464 C 251.200 185.267,251.740 184.491,252.400 183.739 C 253.060 182.987,253.600 182.152,253.600 181.882 C 253.600 181.613,253.960 181.168,254.400 180.893 C 254.840 180.618,255.200 180.138,255.200 179.825 C 255.200 179.513,255.965 178.442,256.900 177.445 C 259.851 174.300,262.400 171.061,262.400 170.456 C 262.400 170.221,262.760 169.835,263.200 169.600 C 263.640 169.365,264.000 168.932,264.000 168.639 C 264.000 168.347,264.895 167.138,265.989 165.953 C 267.083 164.769,267.983 163.635,267.989 163.434 C 267.995 163.232,268.265 162.782,268.588 162.434 C 272.139 158.608,273.099 157.498,273.689 156.530 C 274.987 154.400,275.403 153.877,277.100 152.250 C 278.035 151.353,278.800 150.496,278.800 150.344 C 278.800 150.080,279.479 149.293,283.964 144.361 C 285.084 143.130,286.000 141.919,286.000 141.671 C 286.000 141.422,286.450 140.924,287.000 140.563 C 287.550 140.203,288.000 139.702,288.000 139.450 C 288.000 139.198,288.360 138.768,288.800 138.493 C 289.240 138.218,289.600 137.731,289.600 137.411 C 289.600 137.090,289.960 136.635,290.400 136.400 C 290.980 136.090,291.200 135.562,291.200 134.482 C 291.200 133.426,290.967 132.847,290.400 132.493 C 289.960 132.218,289.600 131.636,289.600 131.200 C 289.600 130.764,289.240 130.182,288.800 129.907 C 288.360 129.632,288.000 129.100,288.000 128.724 C 288.000 128.349,287.550 127.556,287.000 126.962 C 286.450 126.369,286.000 125.655,286.000 125.376 C 286.000 124.434,281.838 119.968,281.022 120.034 C 280.790 120.053,279.970 120.514,279.200 121.058 M284.742 125.979 C 286.094 127.966,287.200 129.752,287.200 129.947 C 287.200 130.142,287.466 130.523,287.792 130.793 C 290.469 133.015,290.114 135.348,286.511 139.200 C 285.791 139.970,285.099 140.915,284.974 141.300 C 284.849 141.685,284.585 142.000,284.389 142.000 C 284.193 142.000,281.755 144.745,278.973 148.100 C 276.190 151.455,273.663 154.400,273.357 154.644 C 273.051 154.888,272.800 155.279,272.800 155.512 C 272.800 155.745,271.927 156.895,270.859 158.068 C 269.034 160.073,266.020 163.809,261.119 170.137 C 259.954 171.642,257.965 174.162,256.700 175.737 C 255.436 177.311,254.401 178.782,254.400 179.004 C 254.400 179.226,254.040 179.632,253.600 179.907 C 253.160 180.182,252.800 180.577,252.800 180.785 C 252.800 180.993,251.405 183.031,249.700 185.315 C 247.995 187.599,246.330 189.882,246.000 190.389 C 245.670 190.896,244.995 191.807,244.500 192.413 C 244.005 193.020,243.600 193.644,243.600 193.800 C 243.600 193.956,243.195 194.593,242.700 195.215 C 242.205 195.836,241.350 196.999,240.800 197.798 C 240.250 198.597,239.035 200.217,238.100 201.398 C 237.165 202.580,236.398 203.693,236.395 203.873 C 236.392 204.053,236.028 204.650,235.586 205.200 C 233.437 207.877,227.605 216.220,225.421 219.743 C 224.992 220.435,224.407 221.144,224.121 221.320 C 223.834 221.496,223.600 221.790,223.600 221.974 C 223.600 222.158,222.835 223.427,221.900 224.793 C 220.965 226.160,219.930 227.684,219.600 228.181 C 219.270 228.678,218.235 230.235,217.301 231.642 C 216.367 233.049,215.415 234.470,215.187 234.800 C 214.958 235.130,213.798 236.930,212.608 238.800 C 211.419 240.670,210.121 242.650,209.724 243.200 C 208.288 245.191,205.600 249.267,205.600 249.453 C 205.600 249.558,204.906 250.669,204.058 251.922 C 203.210 253.175,202.193 254.830,201.799 255.600 C 199.531 260.026,197.866 259.566,191.444 252.740 C 189.716 250.903,186.119 247.079,183.451 244.243 C 180.783 241.406,177.476 237.915,176.103 236.484 C 174.729 235.053,173.135 233.266,172.561 232.514 C 171.987 231.761,171.086 230.949,170.559 230.708 C 170.031 230.468,169.600 230.094,169.600 229.878 C 169.600 229.509,168.388 228.199,160.800 220.367 C 154.551 213.917,147.461 206.400,146.646 205.361 C 146.181 204.767,144.610 203.065,143.157 201.578 C 139.481 197.820,139.481 197.840,143.157 193.688 C 146.338 190.094,153.349 183.097,153.993 182.874 C 154.740 182.615,155.968 183.484,160.573 187.533 C 163.700 190.282,166.494 192.712,169.000 194.862 C 170.696 196.317,173.339 198.777,177.342 202.625 C 177.814 203.079,179.370 204.424,180.800 205.615 C 183.018 207.462,185.635 209.841,189.357 213.394 C 190.752 214.726,192.127 214.076,194.000 211.196 C 194.830 209.921,197.414 206.985,199.800 204.606 C 200.900 203.510,202.761 201.440,203.935 200.006 C 205.110 198.573,207.270 196.124,208.735 194.565 C 210.201 193.006,212.462 190.576,213.761 189.165 C 218.993 183.479,220.853 181.499,227.583 174.444 C 249.423 151.550,277.602 123.497,280.126 122.136 C 281.397 121.451,282.008 121.959,284.742 125.979 M28.101 295.000 C 28.096 298.520,28.175 301.085,28.276 300.700 C 28.484 299.905,29.977 299.736,30.044 300.500 C 30.069 300.775,30.051 301.442,30.005 301.982 C 29.931 302.855,29.995 302.902,30.587 302.411 C 32.045 301.201,30.809 290.400,29.214 290.400 C 28.746 290.400,28.389 290.056,28.282 289.500 C 28.187 289.005,28.105 291.480,28.101 295.000 M370.335 295.322 C 369.630 296.027,368.613 302.001,368.962 303.390 C 369.317 304.806,369.925 304.648,370.075 303.100 C 370.179 302.020,370.359 301.809,371.140 301.851 C 372.063 301.901,372.078 301.844,371.938 298.769 C 371.785 295.394,371.302 294.355,370.335 295.322 M30.500 305.865 C 29.429 306.297,29.855 311.479,30.979 311.694 C 32.325 311.951,32.800 311.337,32.800 309.339 C 32.800 306.523,31.971 305.271,30.500 305.865 M368.931 308.278 C 368.026 308.455,367.200 310.152,367.200 311.836 C 367.200 313.027,367.848 313.423,368.117 312.396 C 368.241 311.921,368.663 311.600,369.163 311.600 C 369.888 311.600,370.000 311.360,370.000 309.800 C 370.000 308.810,369.955 308.025,369.900 308.054 C 369.845 308.084,369.409 308.185,368.931 308.278 M32.000 315.773 C 32.000 316.917,32.153 317.200,32.773 317.200 C 33.316 317.200,33.590 317.529,33.691 318.300 L 33.835 319.400 34.378 318.309 C 35.196 316.663,34.515 314.640,33.087 314.473 C 32.084 314.357,32.000 314.457,32.000 315.773 M366.080 315.680 C 364.909 316.851,365.980 319.600,367.395 319.057 C 368.344 318.693,368.240 315.200,367.280 315.200 C 366.884 315.200,366.344 315.416,366.080 315.680 M33.662 322.217 C 33.700 323.216,33.909 324.144,34.127 324.279 C 34.358 324.421,34.397 324.318,34.220 324.032 C 33.998 323.673,34.142 323.682,34.758 324.067 C 35.400 324.467,35.600 324.997,35.600 326.296 C 35.600 327.988,35.610 328.000,37.052 328.000 L 38.505 328.000 38.265 326.500 C 38.128 325.640,37.679 324.766,37.213 324.451 C 36.766 324.149,36.400 323.463,36.400 322.925 C 36.400 321.403,35.678 320.400,34.583 320.400 C 33.666 320.400,33.599 320.532,33.662 322.217 M363.992 322.015 C 363.300 323.307,363.866 324.400,365.227 324.400 C 366.329 324.400,366.400 324.303,366.400 322.800 C 366.400 320.949,364.836 320.439,363.992 322.015 M362.480 325.280 C 361.446 326.314,361.892 328.000,363.200 328.000 C 364.333 328.000,364.400 327.911,364.400 326.400 C 364.400 324.715,363.544 324.216,362.480 325.280 M37.200 329.200 C 37.200 329.787,37.467 330.000,38.200 330.000 C 39.119 330.000,39.200 330.147,39.200 331.800 C 39.200 333.453,39.281 333.600,40.200 333.600 C 41.272 333.600,41.538 332.647,40.843 331.295 C 40.647 330.913,40.291 330.105,40.052 329.500 C 39.498 328.097,37.200 327.856,37.200 329.200 M360.414 329.174 C 360.186 329.599,360.000 330.307,360.000 330.747 C 360.000 331.194,359.649 331.658,359.201 331.800 C 358.761 331.939,358.295 332.478,358.165 332.997 C 358.035 333.516,357.584 334.252,357.164 334.633 C 356.452 335.277,356.133 336.799,356.609 337.276 C 357.063 337.730,358.915 337.045,359.095 336.357 C 359.200 335.955,359.627 335.518,360.043 335.386 C 360.614 335.205,360.800 334.765,360.800 333.601 C 360.800 332.303,360.944 332.035,361.700 331.928 C 363.152 331.722,363.282 328.400,361.837 328.400 C 361.249 328.400,360.655 328.723,360.414 329.174 M41.009 334.324 C 40.585 334.748,40.816 336.400,41.300 336.406 C 41.633 336.410,41.600 336.542,41.200 336.800 C 40.732 337.102,40.843 337.189,41.700 337.194 C 42.605 337.199,42.800 337.377,42.800 338.200 C 42.800 338.933,43.013 339.200,43.600 339.200 C 44.108 339.200,44.400 339.467,44.400 339.930 C 44.400 340.332,44.850 341.083,45.400 341.600 C 45.950 342.117,46.400 342.958,46.400 343.470 C 46.400 344.116,46.631 344.400,47.157 344.400 C 47.630 344.400,48.007 344.774,48.164 345.400 C 48.326 346.046,48.696 346.400,49.208 346.400 C 49.733 346.400,50.000 346.669,50.000 347.200 C 50.000 347.787,50.267 348.000,51.000 348.000 C 51.800 348.000,52.000 348.200,52.000 349.000 C 52.000 349.733,52.213 350.000,52.800 350.000 C 53.331 350.000,53.600 350.267,53.600 350.792 C 53.600 351.304,53.954 351.674,54.600 351.836 C 55.507 352.063,55.782 352.448,55.647 353.300 C 55.621 353.465,56.320 353.600,57.200 353.600 C 58.622 353.600,58.800 353.493,58.800 352.641 C 58.800 351.771,56.472 349.200,55.684 349.200 C 54.979 349.200,50.056 343.953,48.000 341.010 C 47.420 340.180,46.538 339.479,45.900 339.340 C 45.011 339.146,44.800 338.880,44.800 337.950 C 44.800 337.318,44.659 336.800,44.488 336.800 C 44.316 336.800,43.981 336.286,43.744 335.657 C 43.345 334.599,41.590 333.744,41.009 334.324 M351.600 342.055 C 350.390 343.400,349.271 344.837,349.113 345.250 C 348.955 345.662,348.659 346.000,348.456 346.000 C 348.253 346.000,347.974 346.450,347.836 347.000 C 347.680 347.622,347.301 348.000,346.835 348.000 C 346.423 348.000,345.982 348.270,345.855 348.600 C 345.729 348.930,345.339 349.200,344.989 349.200 C 344.640 349.200,342.879 350.337,341.077 351.728 C 339.275 353.118,336.540 354.995,335.000 355.898 C 333.460 356.802,331.480 357.986,330.600 358.531 C 328.318 359.943,324.185 362.000,323.631 362.000 C 323.372 362.000,322.590 362.295,321.892 362.656 C 320.632 363.307,318.549 363.842,312.800 364.991 C 311.150 365.320,308.900 365.852,307.800 366.172 C 304.906 367.014,297.825 367.567,284.400 368.000 C 268.269 368.520,120.360 368.506,114.400 367.984 C 111.870 367.763,106.380 367.421,102.200 367.225 C 98.020 367.030,93.340 366.601,91.800 366.273 C 90.260 365.945,87.920 365.458,86.600 365.192 C 85.280 364.925,83.714 364.458,83.120 364.153 C 82.526 363.849,81.626 363.600,81.120 363.600 C 80.614 363.600,79.120 363.078,77.800 362.439 C 69.680 358.509,67.529 357.397,67.139 356.927 C 66.171 355.760,64.183 356.768,64.471 358.281 C 64.546 358.676,65.012 359.058,65.505 359.128 C 65.998 359.198,66.588 359.603,66.815 360.028 C 67.152 360.658,67.666 360.800,69.614 360.800 C 71.434 360.800,72.000 360.938,72.000 361.381 C 72.000 361.701,72.608 362.130,73.355 362.337 C 74.101 362.543,75.091 363.091,75.555 363.555 C 76.162 364.162,76.902 364.400,78.182 364.400 C 79.549 364.400,80.196 364.633,80.964 365.400 C 81.592 366.029,82.416 366.400,83.182 366.400 C 84.004 366.400,84.400 366.597,84.400 367.006 C 84.400 367.412,84.765 367.599,85.500 367.570 C 87.587 367.489,93.200 368.119,93.200 368.435 C 93.200 368.922,90.122 369.252,86.814 369.120 C 83.160 368.973,82.024 370.112,85.379 370.558 C 86.380 370.691,88.003 370.908,88.983 371.039 C 92.149 371.463,92.266 373.600,89.124 373.600 C 88.158 373.600,88.004 373.755,88.025 374.700 C 88.050 375.768,88.061 375.774,88.417 374.887 C 88.830 373.859,91.400 373.702,91.776 374.681 C 92.010 375.291,93.841 375.381,94.200 374.800 C 94.544 374.243,96.014 374.325,97.172 374.967 L 98.144 375.505 96.855 376.172 C 95.807 376.713,94.800 378.113,94.800 379.026 C 94.800 379.122,95.880 379.200,97.200 379.200 C 99.594 379.200,99.600 379.197,99.600 378.014 C 99.600 376.974,100.744 375.696,101.247 376.173 C 101.331 376.252,104.730 376.540,108.800 376.812 C 113.282 377.112,116.437 377.498,116.800 377.792 C 117.468 378.332,120.800 378.137,120.800 377.558 C 120.800 376.556,130.657 377.169,131.127 378.200 L 131.583 379.200 196.130 379.200 C 252.249 379.200,260.832 379.123,261.861 378.609 C 262.821 378.130,265.622 377.998,276.690 377.909 C 284.194 377.849,290.484 377.650,290.666 377.467 C 291.125 377.008,289.718 376.047,288.881 376.248 C 288.101 376.434,286.891 375.776,287.286 375.380 C 288.288 374.378,295.200 374.962,295.200 376.049 C 295.200 376.242,296.460 376.400,298.000 376.400 C 299.704 376.400,300.800 376.566,300.800 376.824 C 300.800 377.057,300.992 377.128,301.227 376.983 C 301.462 376.838,301.558 376.467,301.440 376.160 C 301.322 375.852,301.399 375.600,301.613 375.600 C 301.826 375.600,302.000 375.162,302.000 374.627 C 302.000 373.739,302.269 373.596,305.100 372.975 C 306.805 372.602,308.347 372.212,308.526 372.108 C 308.975 371.850,307.608 370.400,306.914 370.400 C 306.606 370.400,306.464 370.220,306.600 370.000 C 306.736 369.780,307.288 369.600,307.828 369.600 C 308.367 369.600,309.116 369.240,309.493 368.800 C 309.873 368.356,310.673 368.000,311.289 368.000 C 311.900 368.000,312.760 367.640,313.200 367.200 C 313.824 366.576,314.533 366.400,316.426 366.400 C 319.043 366.400,320.400 365.917,320.400 364.986 C 320.400 364.552,320.903 364.400,322.338 364.400 C 323.773 364.400,324.465 364.191,325.005 363.594 C 325.407 363.151,326.448 362.674,327.321 362.534 C 328.351 362.370,328.970 362.036,329.089 361.582 C 329.276 360.865,333.474 359.200,335.095 359.200 C 336.462 359.200,337.200 358.764,337.200 357.957 C 337.200 357.455,337.482 357.200,338.037 357.200 C 338.537 357.200,338.959 356.879,339.083 356.404 C 339.197 355.967,339.428 355.694,339.596 355.797 C 339.763 355.901,340.641 355.449,341.547 354.793 C 342.452 354.137,343.465 353.600,343.797 353.600 C 344.128 353.600,344.400 353.253,344.400 352.828 C 344.400 352.332,344.722 352.010,345.300 351.928 C 345.878 351.846,346.246 351.478,346.328 350.900 C 346.410 350.322,346.732 350.000,347.228 350.000 C 347.785 350.000,348.000 349.721,348.000 349.000 C 348.000 348.200,348.200 348.000,349.000 348.000 C 349.721 348.000,350.000 347.785,350.000 347.228 C 350.000 346.732,350.322 346.410,350.900 346.328 C 351.478 346.246,351.846 345.878,351.928 345.300 C 352.010 344.722,352.332 344.400,352.828 344.400 C 353.270 344.400,353.600 344.126,353.600 343.758 C 353.600 343.405,354.050 342.581,354.600 341.927 C 357.353 338.655,354.552 338.775,351.600 342.055 M358.460 345.633 C 357.419 346.950,357.780 348.000,359.273 348.000 C 359.699 348.000,359.936 348.180,359.800 348.400 C 359.664 348.620,359.743 348.800,359.976 348.800 C 360.209 348.800,360.400 348.540,360.400 348.223 C 360.400 347.671,361.504 347.646,362.364 348.178 C 362.563 348.301,362.627 348.026,362.507 347.567 C 362.357 346.993,362.195 346.885,361.987 347.220 C 361.652 347.763,360.800 346.507,360.800 345.469 C 360.800 345.148,360.515 344.776,360.167 344.643 C 359.382 344.342,359.565 344.236,358.460 345.633 M360.762 349.100 C 360.467 349.485,360.374 349.676,360.554 349.526 C 360.735 349.375,361.284 349.404,361.774 349.590 C 362.408 349.831,362.667 349.782,362.667 349.420 C 362.667 349.112,362.336 348.981,361.833 349.090 C 361.152 349.237,361.109 349.191,361.600 348.841 C 361.930 348.605,361.997 348.409,361.749 348.406 C 361.501 348.403,361.057 348.715,360.762 349.100 M59.900 353.476 C 58.838 353.753,59.030 355.142,60.171 355.428 C 60.704 355.562,61.452 356.016,61.833 356.436 C 62.213 356.856,62.958 357.200,63.489 357.200 C 65.122 357.200,64.596 355.128,62.818 354.553 C 62.058 354.308,61.368 353.903,61.284 353.653 C 61.127 353.182,61.057 353.173,59.900 353.476 M72.200 364.800 C 71.835 365.391,72.314 365.957,73.129 365.895 C 74.109 365.822,74.176 364.400,73.199 364.400 C 72.785 364.400,72.336 364.580,72.200 364.800 M315.700 367.928 C 314.727 368.066,314.491 368.707,315.300 369.017 C 315.575 369.122,316.610 368.967,317.600 368.672 L 319.400 368.137 318.000 367.968 C 317.230 367.876,316.195 367.858,315.700 367.928 M305.200 368.400 C 305.200 368.620,304.851 368.800,304.424 368.800 C 303.997 368.800,303.536 368.620,303.400 368.400 C 303.260 368.173,303.596 368.000,304.176 368.000 C 304.739 368.000,305.200 368.180,305.200 368.400 M96.200 370.000 C 96.336 370.220,96.087 370.400,95.647 370.400 C 95.207 370.400,94.736 370.220,94.600 370.000 C 94.464 369.780,94.713 369.600,95.153 369.600 C 95.593 369.600,96.064 369.780,96.200 370.000 M313.200 370.400 C 312.667 370.745,312.667 370.792,313.200 370.822 C 313.604 370.845,313.539 370.968,313.000 371.200 C 312.237 371.528,312.241 371.545,313.100 371.572 C 313.743 371.592,314.000 371.371,314.000 370.800 C 314.000 369.882,314.001 369.883,313.200 370.400 M104.200 372.000 C 104.064 372.220,103.603 372.400,103.176 372.400 C 102.749 372.400,102.400 372.220,102.400 372.000 C 102.400 371.780,102.861 371.600,103.424 371.600 C 104.004 371.600,104.340 371.773,104.200 372.000 M308.200 374.498 C 307.320 374.716,306.375 374.958,306.100 375.035 C 304.967 375.352,305.536 377.200,306.767 377.200 C 307.408 377.200,308.024 377.425,308.135 377.700 C 308.254 377.995,308.350 377.909,308.368 377.490 C 308.386 377.100,308.850 376.609,309.400 376.400 C 310.320 376.050,310.959 373.906,310.100 374.051 C 309.935 374.078,309.080 374.280,308.200 374.498 " stroke="none" fill="#b3c4db" fill-rule="evenodd"></path></g></svg>